<?xml version="1.0" encoding="utf-8"?>
<!-- Generator: Adobe Illustrator 28.0.0, SVG Export Plug-In . SVG Version: 6.00 Build 0)  -->
<svg version="1.1" id="Layer_1" xmlns="http://www.w3.org/2000/svg" xmlns:xlink="http://www.w3.org/1999/xlink" x="0px" y="0px"
	 viewBox="0 0 602.2 602.2" enable-background="new 0 0 602.2 602.2" xml:space="preserve">
<circle fill="none" stroke="#000000" stroke-miterlimit="10" cx="301.1" cy="301.1" r="255.9"/>
<circle fill="none" stroke="#000000" stroke-width="0.5" stroke-miterlimit="10" cx="301.1" cy="301.1" r="128.9"/>
<circle fill="none" stroke="#000000" stroke-width="0.5" stroke-miterlimit="10" cx="301.1" cy="301.1" r="88.9"/>
<g>
	<path stroke="#000000" stroke-miterlimit="10" d="M301.1,91.1c-0.1-0.2-1.3-0.2-1.5-0.2c-0.1,0-0.1,0-0.2,0c-0.8,0-1.5,0.5-2.3,0.6
		c-0.2,0.1-1.1,0.5-1.3,0.7c-0.4,0.2-0.6,0.5-1,0.8c-0.2,0.3-0.3,0.6-0.6,0.6c-0.3,0-0.4-0.2-0.4-0.5c0-0.5,0.4-0.9,0.6-1.4
		c0-0.1,0.1-0.2,0.1-0.2c0.1-0.1,0.2-1,0.2-1.1s0.1-0.2,0.1-0.2c0.1-0.1,0.1-0.4,0.1-0.4c0-0.1-0.1-0.8-0.2-1
		c-0.1-0.7-0.4-1.4-0.8-2c0-0.1,0.1-0.2,0.1-0.2c0.1,0,0.2,0.1,0.4,0.2c0.1,0.1,0.5,0.3,0.5,0.3c0.1,0.1,0.3,0.3,0.5,0.5l0.2,0.3
		c0,0,0.3,0.2,0.4,0.3c0.3,0.2,0.6,0.5,1,0.6c0.1,0,0.3,0.3,0.3,0.3l0.3,0.1c0.3,0.1,0.5,0.2,0.8,0.3c0.1,0,0.5,0.1,0.5,0.1l0.2,0.1
		c0,0,0,0,0.1,0h0.1l0.1-0.1l0.2,0.1h0.1c0.1,0,0.5-0.2,0.5-0.3v-1.2c-0.1-0.3-0.1-0.4-0.1-0.8c0-0.1-0.1-0.3-0.1-0.3
		c0-0.1-0.1-0.3-0.1-0.3c0-0.1-0.1-0.3-0.1-0.3c0-0.1-0.1-0.1-0.1-0.2c-0.1-0.2-0.1-0.3-0.2-0.5c-0.1-0.3-0.3-0.5-0.4-0.8l-0.1-0.3
		c-0.1-0.1-0.3-0.3-0.3-0.4c-0.1-0.1-0.8-0.8-1-1V83c0-0.3,0.2-0.5,0.5-0.5c0.6,0,1,0.5,1.6,0.7c0.7,0.2,1.4,0.3,2.1,0.3
		c0.3,0,0.8,0,1-0.1c0.6-0.3,1.1-0.6,1.8-0.6c0.2,0,0.4,0.1,0.4,0.3V83c0,0.1-0.2,0.3-0.2,0.5c-0.1,0.3-0.5,0.3-0.8,0.4
		c-0.5,0.3-1,0.8-1.4,1.3c0,0.1-0.2,0.2-0.2,0.2c-0.3,0.5-0.4,1.2-0.5,1.8c0,0.1-0.1,0.2-0.1,0.2c0,0.1-0.1,0.3-0.1,0.3v0.1
		c0,0.1,0,0.4,0,0.4c0,0.1-0.1,0.4-0.1,0.4v0.1c0,0.3,0.1,0.8,0.6,0.8c0.1,0,0.1,0,0.1-0.1c0.1,0,0.5-0.1,0.7-0.1l0.1-0.1
		c0.1-0.1,0.5-0.2,0.5-0.2h0.1c0.1,0,0.2,0,0.2,0l0.1-0.1c0.1-0.1,0.3-0.1,0.5-0.2l0.1-0.1c0.1-0.1,0.4-0.3,0.4-0.3
		c0.1,0,0.4-0.1,0.5-0.1s0.3-0.3,0.3-0.4l0.3-0.1c0.1-0.1,0.7-0.5,0.8-0.5l0.1-0.2c0.1-0.1,0.3-0.1,0.4-0.2c0.2-0.1,0.2-0.2,0.5-0.2
		c0.2,0,0.2,0.1,0.2,0.3c0,0.1,0,0.1,0,0.1c0,0.1,0,0.3-0.1,0.5s-0.5,1.1-0.7,1.3c-0.1,0.5-0.1,1.2-0.1,1.8c0,0.1,0,0.3,0,0.3
		l0.1,0.2c0,0.1,0.1,0.7,0.1,0.8c0.1,0.2,0.2,0.3,0.2,0.5c0,0.1,0,0.1,0.1,0.3c0,0,0.3,0.3,0.3,0.7c0,0.1-0.1,0.3-0.2,0.3
		c-0.3,0-0.4-0.4-0.6-0.6l-0.4-0.3c-0.1-0.1-0.5-0.5-0.5-0.5s-0.8-0.3-1.1-0.5l-0.3-0.1l-0.3-0.2c0,0-0.1-0.1-0.2-0.1
		c-0.1-0.1-0.8-0.2-0.9-0.2s-0.3-0.1-0.3-0.1H303l-0.2-0.1h-0.1c0,0,0,0-0.1,0c-0.3,0.1-0.8,0-1,0.3l0,0l-0.3,0.1l-1-0.2"/>
</g>
<line fill="none" stroke="#000000" stroke-width="3" stroke-miterlimit="10" x1="301.1" y1="301.1" x2="301.1" y2="90.5"/>
<g>
	<circle fill="#E7D9B8" stroke="#000000" stroke-miterlimit="10" cx="301.1" cy="212.2" r="10"/>
	<path d="M296.3,212.2c0-4.1,1.5-7.7,3.9-10c-5.1,0.4-9.2,4.7-9.1,10c0,5.2,4.1,9.5,9.2,9.9C297.9,219.9,296.3,216.3,296.3,212.2z"
		/>
</g>
</svg>
