<?xml version="1.0" encoding="utf-8"?>
<!-- Generator: Adobe Illustrator 28.0.0, SVG Export Plug-In . SVG Version: 6.00 Build 0)  -->
<svg version="1.1" id="Layer_1" xmlns="http://www.w3.org/2000/svg" xmlns:xlink="http://www.w3.org/1999/xlink" x="0px" y="0px"
	 viewBox="0 0 602.2 602.2" enable-background="new 0 0 602.2 602.2" xml:space="preserve">
<circle fill="none" stroke="#000000" stroke-miterlimit="10" cx="301" cy="301.1" r="255.9"/>
<line fill="none" stroke="#000000" stroke-width="3" stroke-miterlimit="10" x1="301.1" y1="301.1" x2="301.1" y2="38.9"/>
<g>
	<circle fill="#907D69" stroke="#000000" stroke-miterlimit="10" cx="301.1" cy="172.2" r="10"/>
	<polygon fill="#E7D9B8" stroke="#000000" stroke-width="0.5" stroke-linejoin="round" stroke-miterlimit="10" points="301.1,162.2 
		302.6,168.5 308.2,165.1 304.8,170.6 311.1,172.1 304.8,173.7 308.2,179.2 302.6,175.9 301.1,182.2 299.6,175.9 294.1,179.3 
		297.4,173.7 291.1,172.2 297.4,170.7 294,165.1 299.6,168.5 	"/>
	<circle fill="#E7D9B8" stroke="#000000" stroke-width="0.5" stroke-miterlimit="10" cx="301.1" cy="172.2" r="3.5"/>
</g>
<g>
	<path d="M297.8,40.9c-0.4-0.4-0.5-1.1-0.8-1.6l-0.2-0.3l-0.1-0.5c0-0.1-0.2-0.5-0.2-0.6c-0.1-0.3-0.3-0.5-0.6-0.7h-0.1
		c-0.5,0-0.3,1.9-1,1.9c-0.6,0-1.1-1.3-1.1-1.9c0-1,0-1.9,0.9-2.5c0.1-0.1,0.3-0.2,0.4-0.2s0.4,0,0.4,0c0.1,0,0.7-0.2,0.8-0.2
		c0,0,0.3,0,0.4,0c0.4,0,0.7,0,1.1,0.1c0.3,0.1,0.5,0.4,0.8,0.5c0.1,0.1,0.8,0.4,0.9,0.4c0.1,0.1,0.5,0.5,0.6,0.6h0.3
		c0,0,0.2-1.4,0.2-2.1v-0.1v-0.1c0-0.2-0.1-1.1-0.1-1.3c-0.2-0.2-0.4-0.4-0.6-0.4h-0.2c-0.1,0-0.4,0.3-0.4,0.3H299
		c-0.4,0.1-0.8,0.2-1.2,0.2c-0.8,0-1.3-0.5-1.8-1.1c-0.2-0.2-0.2-0.5-0.2-0.8c0-0.5,0.2-0.9,0.4-1.3c0.3-0.6,0.7-0.9,1.4-0.9
		c0.4,0,0.7,0.3,1.1,0.3c0.1,0,0.3,0,0.3-0.1c0.2-1.2,0.5-2.1,1.6-2.7c0,0,0.4-0.1,0.5-0.1h0.1h0.1c1.3,0.4,1.4,1.2,1.4,2.3
		c0,0.2,0,0.7,0,0.7l-0.1,0.3c0,0,0,0.1,0,0.2s0,0.2,0.1,0.3c0.5-0.7,1.3-1,2.1-1c1.1,0,1.3,0.8,1.7,1.6l0.2,0.3
		c0,0.1-0.2,0.5-0.2,0.6c-0.1,0.2-0.4,0.6-0.4,0.6c-0.1,0.1-0.7,0.4-0.9,0.4c-0.3,0.1-0.7,0.2-1,0.2c-0.6,0-1.2-0.6-1.6-0.6
		c-0.2,0-0.2,0.1-0.3,0.2c0,0.1-0.1,0.7-0.1,0.9s0,1.3,0,1.7c0,0.3,0,1.1,0,1.2l0.1,0.4h0.1c0.1-0.2,0.7-0.9,0.9-1.1
		c0.8-1,1.7-1.1,2.9-1.1h0.1c0.1,0,0.6,0.4,0.7,0.4c0.1,0.1,0.6,0.3,0.7,0.4c0.5,0.5,1,1.7,1,2.4s-0.4,1.5-0.9,2
		c-0.1,0.1-0.4,0.4-0.4,0.4l0,0c-1,0-0.4-2-1.5-2c-0.6,0-0.6,1.9-0.8,2.4c0,0-0.2,0.3-0.2,0.4c-1,1.3-1.9,1.8-3.5,2.1h-0.2
		c-0.7,0-1.4-0.2-2-0.4C298.8,42,297.9,41.1,297.8,40.9z"/>
</g>
</svg>
