<?xml version="1.0" encoding="utf-8"?>
<!-- Generator: Adobe Illustrator 28.0.0, SVG Export Plug-In . SVG Version: 6.00 Build 0)  -->
<svg version="1.1" id="Layer_1" xmlns="http://www.w3.org/2000/svg" xmlns:xlink="http://www.w3.org/1999/xlink" x="0px" y="0px"
	 viewBox="0 0 602.2 602.2" enable-background="new 0 0 602.2 602.2" xml:space="preserve">
<circle fill="#A1917A" cx="301.1" cy="301.1" r="60"/>
<g>
	<g>
		<circle fill="none" stroke="#000000" stroke-width="0.5" stroke-miterlimit="10" cx="301.1" cy="301.1" r="60"/>
		<circle fill="none" stroke="#000000" stroke-width="0.5" stroke-miterlimit="10" cx="301.1" cy="301.1" r="48"/>
		<circle fill="none" stroke="#000000" stroke-width="0.5" stroke-miterlimit="10" cx="301.1" cy="301.1" r="36"/>
		<circle fill="none" stroke="#000000" stroke-width="0.5" stroke-miterlimit="10" cx="301.1" cy="301.1" r="24"/>
		<circle fill="none" stroke="#000000" stroke-width="0.5" stroke-miterlimit="10" cx="301.1" cy="301.1" r="12"/>
	</g>
	<g>
		<line fill="none" stroke="#000000" stroke-width="0.5" stroke-miterlimit="10" x1="301.1" y1="301.1" x2="301.1" y2="241.1"/>
		<line fill="none" stroke="#000000" stroke-width="0.5" stroke-miterlimit="10" x1="301.1" y1="301.1" x2="316.6" y2="243.1"/>
		<line fill="none" stroke="#000000" stroke-width="0.5" stroke-miterlimit="10" x1="301.1" y1="301.1" x2="331.1" y2="249.1"/>
		<line fill="none" stroke="#000000" stroke-width="0.5" stroke-miterlimit="10" x1="301.1" y1="301.1" x2="343.5" y2="258.7"/>
		<line fill="none" stroke="#000000" stroke-width="0.5" stroke-miterlimit="10" x1="301.1" y1="301.1" x2="353.1" y2="271.1"/>
		<line fill="none" stroke="#000000" stroke-width="0.5" stroke-miterlimit="10" x1="301.1" y1="301.1" x2="359.1" y2="285.6"/>
		<line fill="none" stroke="#000000" stroke-width="0.5" stroke-miterlimit="10" x1="301.1" y1="301.1" x2="361.1" y2="301.1"/>
		<line fill="none" stroke="#000000" stroke-width="0.5" stroke-miterlimit="10" x1="301.1" y1="301.1" x2="359.1" y2="316.6"/>
		<line fill="none" stroke="#000000" stroke-width="0.5" stroke-miterlimit="10" x1="301.1" y1="301.1" x2="353.1" y2="331.1"/>
		<line fill="none" stroke="#000000" stroke-width="0.5" stroke-miterlimit="10" x1="301.1" y1="301.1" x2="343.5" y2="343.5"/>
		<line fill="none" stroke="#000000" stroke-width="0.5" stroke-miterlimit="10" x1="301.1" y1="301.1" x2="331.1" y2="353.1"/>
		<line fill="none" stroke="#000000" stroke-width="0.5" stroke-miterlimit="10" x1="301.1" y1="301.1" x2="316.6" y2="359.1"/>
		<line fill="none" stroke="#000000" stroke-width="0.5" stroke-miterlimit="10" x1="301.1" y1="301.1" x2="301.1" y2="361.1"/>
		<line fill="none" stroke="#000000" stroke-width="0.5" stroke-miterlimit="10" x1="301.1" y1="301.1" x2="285.6" y2="359.1"/>
		<line fill="none" stroke="#000000" stroke-width="0.5" stroke-miterlimit="10" x1="301.1" y1="301.1" x2="271.1" y2="353.1"/>
		<line fill="none" stroke="#000000" stroke-width="0.5" stroke-miterlimit="10" x1="301.1" y1="301.1" x2="258.7" y2="343.5"/>
		<line fill="none" stroke="#000000" stroke-width="0.5" stroke-miterlimit="10" x1="301.1" y1="301.1" x2="249.1" y2="331.1"/>
		<line fill="none" stroke="#000000" stroke-width="0.5" stroke-miterlimit="10" x1="301.1" y1="301.1" x2="243.1" y2="316.6"/>
		<line fill="none" stroke="#000000" stroke-width="0.5" stroke-miterlimit="10" x1="301.1" y1="301.1" x2="241.1" y2="301.1"/>
		<line fill="none" stroke="#000000" stroke-width="0.5" stroke-miterlimit="10" x1="301.1" y1="301.1" x2="243.1" y2="285.6"/>
		<line fill="none" stroke="#000000" stroke-width="0.5" stroke-miterlimit="10" x1="301.1" y1="301.1" x2="249.1" y2="271.1"/>
		<line fill="none" stroke="#000000" stroke-width="0.5" stroke-miterlimit="10" x1="301.1" y1="301.1" x2="258.7" y2="258.7"/>
		<line fill="none" stroke="#000000" stroke-width="0.5" stroke-miterlimit="10" x1="301.1" y1="301.1" x2="271.1" y2="249.1"/>
		<line fill="none" stroke="#000000" stroke-width="0.5" stroke-miterlimit="10" x1="301.1" y1="301.1" x2="285.6" y2="243.1"/>
	</g>
</g>
<g>
	<path stroke="#000000" stroke-width="0.5" stroke-miterlimit="10" d="M301,224.4c0.1,0,0.5,0,0.5,0c0.1,0,0.7-0.1,0.8-0.2
		c0.1-0.2,0.3-0.2,0.5-0.2l0.2-0.1h0.1c0.1,0,0.3,0,0.3,0.2c0,0,0,0.1-0.1,0.1c0,0.1-0.2,0.3-0.2,0.3c-0.1,0.1-0.6,0.6-0.7,0.7
		c0,0.1-0.1,0.2-0.2,0.2c-0.1,0.1-0.3,0.6-0.4,0.7l-0.1,0.3c0,0-0.1,0.2-0.1,0.3l-0.1,0.1v0.1c0,0.1,0,0.2,0,0.3
		c0,0-0.1,0.2-0.1,0.3c0,0,0.1,0.2,0.1,0.3c0.1,0.1,0.3,0.1,0.4,0.1h0.1c0.5,0,1-0.3,1.5-0.4c0.1-0.1,0.7-0.3,0.8-0.4
		c0.3-0.1,0.4-0.3,0.6-0.5c0.1-0.2,0.2-0.4,0.4-0.4c0.2,0,0.2,0.1,0.2,0.3c0,0.3-0.3,0.6-0.4,0.9v0.1c0,0.1-0.1,0.6-0.1,0.7v0.1
		c0,0.1,0,0.3,0,0.3s0.1,0.5,0.1,0.6c0.1,0.4,0.2,0.9,0.5,1.3c0,0.1,0,0.1-0.1,0.1s-0.1-0.1-0.3-0.1c-0.1,0-0.3-0.2-0.3-0.2
		s-0.2-0.2-0.3-0.3l-0.1-0.2c0,0-0.2-0.1-0.3-0.2c-0.2-0.1-0.4-0.3-0.6-0.4l-0.2-0.2h-0.2c-0.2,0-0.3-0.1-0.5-0.2h-0.3h-0.1l0,0l0,0
		h-0.1h-0.1l0,0c-0.1,0-0.3,0.1-0.3,0.2v0.7c0.1,0.2,0,0.3,0.1,0.5l0.1,0.2c0,0,0,0.2,0.1,0.2c0,0.1,0,0.2,0,0.2l0.1,0.1
		c0.1,0.1,0.1,0.2,0.1,0.4c0.1,0.2,0.2,0.3,0.3,0.5v0.2c0,0,0.2,0.2,0.2,0.3c0.1,0.1,0.5,0.5,0.6,0.6v0.1c0,0.2-0.1,0.3-0.3,0.3
		c-0.4,0-0.6-0.3-1-0.4c-0.4-0.1-0.9-0.2-1.3-0.2c-0.2,0-0.5,0-0.7,0.1c-0.4,0.2-0.7,0.4-1.1,0.4c-0.1,0-0.3,0-0.3-0.2l0,0
		c0,0,0.1-0.2,0.1-0.3c0.1-0.2,0.3-0.2,0.5-0.3c0.4-0.2,0.6-0.5,0.9-0.8l0.1-0.1c0.2-0.4,0.3-0.7,0.4-1.1c0,0,0-0.1,0-0.2
		c0-0.1,0-0.2,0-0.2v-0.1c0-0.1,0-0.3,0-0.3v-0.3c0,0,0,0,0-0.1c0-0.2-0.1-0.5-0.4-0.5c0,0-0.1,0-0.1,0.1c-0.1,0-0.4,0.1-0.4,0.1
		h-0.1c-0.1,0-0.3,0.1-0.3,0.1l0,0c-0.1,0-0.1,0-0.1,0h-0.1c-0.1,0.1-0.2,0.1-0.3,0.1l-0.1,0.1c-0.1,0-0.3,0.2-0.3,0.2h-0.3
		l-0.2,0.2l-0.2,0.1c-0.1,0.1-0.5,0.3-0.5,0.4l-0.1,0.1c-0.1,0.1-0.2,0.1-0.3,0.2c-0.1,0.1-0.1,0.1-0.3,0.1c-0.1,0-0.1-0.1-0.1-0.2
		c0,0,0,0,0-0.1s0-0.2,0-0.3c0.1-0.1,0.4-0.7,0.4-0.8c0.1-0.4,0.1-0.8,0.1-1.1v-0.2v-0.1c0-0.1-0.1-0.4-0.1-0.5
		c0-0.2-0.1-0.2-0.1-0.4c0-0.1,0-0.1-0.1-0.2c0,0-0.2-0.2-0.2-0.5c0-0.1,0-0.2,0.1-0.2c0.2,0,0.3,0.3,0.4,0.4l0.3,0.2l0.3,0.3
		c0,0,0.5,0.2,0.7,0.3l0.2,0.1l0.2,0.1h0.1c0.1,0,0.5,0.1,0.6,0.1l0.2,0.1h0.2h0.1l0,0l0,0c0.2,0,0.5,0,0.7-0.2l0,0l0,0v-0.1V227
		v-0.1l0,0l0,0v-0.1l-0.1-0.2c0-0.1-0.1-0.4-0.1-0.4c0-0.2,0.1-0.4-0.2-0.5c0-0.1-0.2-0.4-0.3-0.4l-0.1-0.1v-0.1v-0.2l-0.1-0.1
		l-0.1-0.2c-0.1-0.1-0.7-0.6-0.8-0.7c-0.1-0.1-0.1-0.2-0.1-0.3s0.1-0.2,0.1-0.2h0.4l0,0c0.2,0.1,0.4,0.3,0.7,0.4h0.1h0.1l0.1,0.1
		h0.2h0.1C300.6,224.4,300.9,224.4,301,224.4z"/>
</g>
</svg>
