<?xml version="1.0" encoding="utf-8"?>
<!-- Generator: Adobe Illustrator 28.0.0, SVG Export Plug-In . SVG Version: 6.00 Build 0)  -->
<svg version="1.1" id="Layer_1" xmlns="http://www.w3.org/2000/svg" xmlns:xlink="http://www.w3.org/1999/xlink" x="0px" y="0px"
	 viewBox="0 0 602.2 602.2" enable-background="new 0 0 602.2 602.2" xml:space="preserve">
<g>
	<g>
		<ellipse fill="none" stroke="#000000" stroke-width="0.5" stroke-miterlimit="10" cx="301.1" cy="291.7" rx="136.5" ry="167.5"/>
		<g>
			<g>
				<path stroke="#000000" stroke-width="0.5" stroke-miterlimit="10" d="M301.1,451.6c-0.1,0-0.5,0-0.5,0c-0.1,0-0.7,0.1-0.8,0.2
					c-0.1,0.2-0.3,0.2-0.5,0.2c0,0-0.2,0.1-0.2,0.1c0,0-0.1,0-0.1,0c-0.1,0-0.3,0-0.3-0.2c0,0,0-0.1,0.1-0.1c0-0.1,0.2-0.3,0.2-0.3
					c0.1-0.1,0.6-0.6,0.7-0.7c0-0.1,0.1-0.2,0.2-0.2c0.1-0.1,0.3-0.6,0.4-0.7c0,0,0.1-0.3,0.1-0.3c0,0,0.1-0.2,0.1-0.3
					c0,0,0.1-0.1,0.1-0.1c0,0,0-0.1,0-0.1c0-0.1,0-0.2,0-0.3c0,0,0.1-0.2,0.1-0.3c0,0-0.1-0.2-0.1-0.3c-0.1-0.1-0.3-0.1-0.4-0.1
					c0,0-0.1,0-0.1,0c-0.5,0-1,0.3-1.5,0.4c-0.1,0.1-0.7,0.3-0.8,0.4c-0.3,0.1-0.4,0.3-0.6,0.5c-0.1,0.2-0.2,0.4-0.4,0.4
					c-0.2,0-0.2-0.1-0.2-0.3c0-0.3,0.3-0.6,0.4-0.9c0,0,0-0.1,0-0.1c0-0.1,0.1-0.6,0.1-0.7c0,0,0-0.1,0-0.1c0-0.1,0-0.3,0-0.3
					c0,0-0.1-0.5-0.1-0.6c-0.1-0.4-0.2-0.9-0.5-1.3c0-0.1,0-0.1,0.1-0.1c0.1,0,0.1,0.1,0.3,0.1c0.1,0,0.3,0.2,0.3,0.2
					c0,0,0.2,0.2,0.3,0.3c0,0,0.1,0.2,0.1,0.2c0,0,0.2,0.1,0.3,0.2c0.2,0.1,0.4,0.3,0.6,0.4c0,0,0.2,0.2,0.2,0.2c0,0,0.2,0,0.2,0
					c0.2,0,0.3,0.1,0.5,0.2c0,0,0.3,0,0.3,0c0,0,0.1,0,0.1,0c0,0,0,0,0,0c0,0,0,0,0,0c0,0,0.1,0,0.1,0s0.1,0,0.1,0c0,0,0,0,0,0
					c0.1,0,0.3-0.1,0.3-0.2v-0.7c-0.1-0.2,0-0.3-0.1-0.5c0,0-0.1-0.2-0.1-0.2c0,0,0-0.2-0.1-0.2c0-0.1,0-0.2,0-0.2
					c0,0-0.1-0.1-0.1-0.1c-0.1-0.1-0.1-0.2-0.1-0.4c-0.1-0.2-0.2-0.3-0.3-0.5c0,0,0-0.2,0-0.2c0,0-0.2-0.2-0.2-0.3
					c-0.1-0.1-0.5-0.5-0.6-0.6c0,0,0-0.1,0-0.1c0-0.2,0.1-0.3,0.3-0.3c0.4,0,0.6,0.3,1,0.4c0.4,0.1,0.9,0.2,1.3,0.2
					c0.2,0,0.5,0,0.7-0.1c0.4-0.2,0.7-0.4,1.1-0.4c0.1,0,0.3,0,0.3,0.2c0,0,0,0,0,0c0,0-0.1,0.2-0.1,0.3c-0.1,0.2-0.3,0.2-0.5,0.3
					c-0.4,0.2-0.6,0.5-0.9,0.8c0,0-0.1,0.1-0.1,0.1c-0.2,0.4-0.3,0.7-0.4,1.1c0,0,0,0.1,0,0.2c0,0.1,0,0.2,0,0.2c0,0,0,0.1,0,0.1
					c0,0.1,0,0.3,0,0.3c0,0,0,0.3,0,0.3c0,0,0,0,0,0.1c0,0.2,0.1,0.5,0.4,0.5c0,0,0.1,0,0.1-0.1c0.1,0,0.4-0.1,0.4-0.1
					c0,0,0.1,0,0.1,0c0.1,0,0.3-0.1,0.3-0.1s0,0,0,0c0.1,0,0.1,0,0.1,0c0,0,0.1,0,0.1,0c0.1-0.1,0.2-0.1,0.3-0.1
					c0,0,0.1-0.1,0.1-0.1c0.1,0,0.3-0.2,0.3-0.2c0,0,0.3,0,0.3,0c0,0,0.2-0.2,0.2-0.2c0,0,0.2-0.1,0.2-0.1c0.1-0.1,0.5-0.3,0.5-0.4
					c0,0,0.1-0.1,0.1-0.1c0.1-0.1,0.2-0.1,0.3-0.2c0.1-0.1,0.1-0.1,0.3-0.1c0.1,0,0.1,0.1,0.1,0.2c0,0,0,0,0,0.1c0,0.1,0,0.2,0,0.3
					c-0.1,0.1-0.4,0.7-0.4,0.8c-0.1,0.4-0.1,0.8-0.1,1.1c0,0,0,0.2,0,0.2c0,0,0,0.1,0,0.1c0,0.1,0.1,0.4,0.1,0.5
					c0,0.2,0.1,0.2,0.1,0.4c0,0.1,0,0.1,0.1,0.2c0,0,0.2,0.2,0.2,0.5c0,0.1,0,0.2-0.1,0.2c-0.2,0-0.3-0.3-0.4-0.4
					c0,0-0.3-0.2-0.3-0.2c0,0-0.3-0.3-0.3-0.3c0,0-0.5-0.2-0.7-0.3c0,0-0.2-0.1-0.2-0.1c0,0-0.2-0.1-0.2-0.1c0,0-0.1,0-0.1,0
					c-0.1,0-0.5-0.1-0.6-0.1c0,0-0.2-0.1-0.2-0.1c0,0-0.2,0-0.2,0c0,0-0.1,0-0.1,0c0,0,0,0,0,0c0,0,0,0,0,0c-0.2,0-0.5,0-0.7,0.2
					c0,0,0,0,0,0c0,0,0,0,0,0c0,0,0,0.1,0,0.1c0,0,0,0.2,0,0.2c0,0,0,0.1,0,0.1v0c0,0,0,0,0,0c0,0,0,0.1,0,0.1c0,0,0.1,0.2,0.1,0.2
					c0,0.1,0.1,0.4,0.1,0.4c0,0.2-0.1,0.4,0.2,0.5c0,0.1,0.2,0.4,0.3,0.4c0,0,0.1,0.1,0.1,0.1c0,0,0,0.1,0,0.1c0,0,0,0.2,0,0.2
					c0,0,0.1,0.1,0.1,0.1c0,0,0.1,0.2,0.1,0.2c0.1,0.1,0.7,0.6,0.8,0.7c0.1,0.1,0.1,0.2,0.1,0.3c0,0.1-0.1,0.2-0.1,0.2h-0.4
					c0,0,0,0,0,0c-0.2-0.1-0.4-0.3-0.7-0.4c0,0-0.1,0-0.1,0c0,0-0.1,0-0.1,0c0,0-0.1-0.1-0.1-0.1c0,0-0.2,0-0.2,0c0,0-0.1,0-0.1,0
					C301.5,451.6,301.2,451.6,301.1,451.6z"/>
			</g>
			<g>
				<path stroke="#000000" stroke-width="0.5" stroke-miterlimit="10" d="M290.8,463.3c-0.1,0-0.5,0-0.5,0c-0.1,0-0.7,0.1-0.8,0.2
					c-0.1,0.2-0.3,0.2-0.5,0.2c0,0-0.2,0.1-0.2,0.1c0,0-0.1,0-0.1,0c-0.1,0-0.3,0-0.3-0.2c0,0,0-0.1,0.1-0.1c0-0.1,0.2-0.3,0.2-0.3
					c0.1-0.1,0.6-0.6,0.7-0.7c0-0.1,0.1-0.2,0.2-0.2c0.1-0.1,0.3-0.6,0.4-0.7c0,0,0.1-0.3,0.1-0.3c0,0,0.1-0.2,0.1-0.3
					c0,0,0.1-0.1,0.1-0.1c0,0,0-0.1,0-0.1c0-0.1,0-0.2,0-0.3c0,0,0.1-0.2,0.1-0.3c0,0-0.1-0.2-0.1-0.3c-0.1-0.1-0.3-0.1-0.4-0.1
					c0,0-0.1,0-0.1,0c-0.5,0-1,0.3-1.5,0.4c-0.1,0.1-0.7,0.3-0.8,0.4c-0.3,0.1-0.4,0.3-0.6,0.5c-0.1,0.2-0.2,0.4-0.4,0.4
					c-0.2,0-0.2-0.1-0.2-0.3c0-0.3,0.3-0.6,0.4-0.9c0,0,0-0.1,0-0.1c0-0.1,0.1-0.6,0.1-0.7c0,0,0-0.1,0-0.1c0-0.1,0-0.3,0-0.3
					c0,0-0.1-0.5-0.1-0.6c-0.1-0.4-0.2-0.9-0.5-1.3c0-0.1,0-0.1,0.1-0.1c0.1,0,0.1,0.1,0.3,0.1c0.1,0,0.3,0.2,0.3,0.2
					c0,0,0.2,0.2,0.3,0.3c0,0,0.1,0.2,0.1,0.2c0,0,0.2,0.1,0.3,0.2c0.2,0.1,0.4,0.3,0.6,0.4c0,0,0.2,0.2,0.2,0.2c0,0,0.2,0,0.2,0
					c0.2,0,0.3,0.1,0.5,0.2c0,0,0.3,0,0.3,0c0,0,0.1,0,0.1,0c0,0,0,0,0,0c0,0,0,0,0,0c0,0,0.1,0,0.1,0s0.1,0,0.1,0c0,0,0,0,0,0
					c0.1,0,0.3-0.1,0.3-0.2l0-0.7c-0.1-0.2,0-0.3-0.1-0.5c0,0-0.1-0.2-0.1-0.2c0,0,0-0.2-0.1-0.2c0-0.1,0-0.2,0-0.2
					c0,0-0.1-0.1-0.1-0.1c-0.1-0.1-0.1-0.2-0.1-0.4c-0.1-0.2-0.2-0.3-0.3-0.5c0,0,0-0.2,0-0.2c0,0-0.2-0.2-0.2-0.3
					c-0.1-0.1-0.5-0.5-0.6-0.6c0,0,0-0.1,0-0.1c0-0.2,0.1-0.3,0.3-0.3c0.4,0,0.6,0.3,1,0.4c0.4,0.1,0.9,0.2,1.3,0.2
					c0.2,0,0.5,0,0.7-0.1c0.4-0.2,0.7-0.4,1.1-0.4c0.1,0,0.3,0,0.3,0.2c0,0,0,0,0,0c0,0-0.1,0.2-0.1,0.3c-0.1,0.2-0.3,0.2-0.5,0.3
					c-0.4,0.2-0.6,0.5-0.9,0.8c0,0-0.1,0.1-0.1,0.1c-0.2,0.4-0.3,0.7-0.4,1.1c0,0,0,0.1,0,0.2c0,0.1,0,0.2,0,0.2c0,0,0,0.1,0,0.1
					c0,0.1,0,0.3,0,0.3c0,0,0,0.3,0,0.3c0,0,0,0,0,0.1c0,0.2,0.1,0.5,0.4,0.5c0,0,0.1,0,0.1-0.1c0.1,0,0.4-0.1,0.4-0.1
					c0,0,0.1,0,0.1,0c0.1,0,0.3-0.1,0.3-0.1s0,0,0,0c0.1,0,0.1,0,0.1,0c0,0,0.1,0,0.1,0c0.1-0.1,0.2-0.1,0.3-0.1
					c0,0,0.1-0.1,0.1-0.1c0.1,0,0.3-0.2,0.3-0.2c0,0,0.3,0,0.3,0c0,0,0.2-0.2,0.2-0.2c0,0,0.2-0.1,0.2-0.1c0.1-0.1,0.5-0.3,0.5-0.4
					c0,0,0.1-0.1,0.1-0.1c0.1-0.1,0.2-0.1,0.3-0.2c0.1-0.1,0.1-0.1,0.3-0.1c0.1,0,0.1,0.1,0.1,0.2c0,0,0,0,0,0.1c0,0.1,0,0.2,0,0.3
					c-0.1,0.1-0.4,0.7-0.4,0.8c-0.1,0.4-0.1,0.8-0.1,1.1c0,0,0,0.2,0,0.2c0,0,0,0.1,0,0.1c0,0.1,0.1,0.4,0.1,0.5
					c0,0.2,0.1,0.2,0.1,0.4c0,0.1,0,0.1,0.1,0.2c0,0,0.2,0.2,0.2,0.5c0,0.1,0,0.2-0.1,0.2c-0.2,0-0.3-0.3-0.4-0.4
					c0,0-0.3-0.2-0.3-0.2c0,0-0.3-0.3-0.3-0.3c0,0-0.5-0.2-0.7-0.3c0,0-0.2-0.1-0.2-0.1c0,0-0.2-0.1-0.2-0.1c0,0-0.1,0-0.1,0
					c-0.1,0-0.5-0.1-0.6-0.1c0,0-0.2-0.1-0.2-0.1c0,0-0.2,0-0.2,0c0,0-0.1,0-0.1,0c0,0,0,0,0,0c0,0,0,0,0,0c-0.2,0-0.5,0-0.7,0.2
					c0,0,0,0,0,0c0,0,0,0,0,0c0,0,0,0.1,0,0.1c0,0,0,0.2,0,0.2c0,0,0,0.1,0,0.1v0c0,0,0,0,0,0c0,0,0,0.1,0,0.1c0,0,0.1,0.2,0.1,0.2
					c0,0.1,0.1,0.4,0.1,0.4c0,0.2-0.1,0.4,0.2,0.5c0,0.1,0.2,0.4,0.3,0.4c0,0,0.1,0.1,0.1,0.1c0,0,0,0.1,0,0.1c0,0,0,0.2,0,0.2
					c0,0,0.1,0.1,0.1,0.1c0,0,0.1,0.2,0.1,0.2c0.1,0.1,0.7,0.6,0.8,0.7c0.1,0.1,0.1,0.2,0.1,0.3c0,0.1-0.1,0.2-0.1,0.2h-0.4
					c0,0,0,0,0,0c-0.2-0.1-0.4-0.3-0.7-0.4c0,0-0.1,0-0.1,0c0,0-0.1,0-0.1,0c0,0-0.1-0.1-0.1-0.1c0,0-0.2,0-0.2,0c0,0-0.1,0-0.1,0
					C291.2,463.3,290.8,463.3,290.8,463.3z"/>
			</g>
			<g>
				<path stroke="#000000" stroke-width="0.5" stroke-miterlimit="10" d="M311.6,463.3c-0.1,0-0.5,0-0.5,0c-0.1,0-0.7,0.1-0.8,0.2
					c-0.1,0.2-0.3,0.2-0.5,0.2c0,0-0.2,0.1-0.2,0.1c0,0-0.1,0-0.1,0c-0.1,0-0.3,0-0.3-0.2c0,0,0-0.1,0.1-0.1c0-0.1,0.2-0.3,0.2-0.3
					c0.1-0.1,0.6-0.6,0.7-0.7c0-0.1,0.1-0.2,0.2-0.2c0.1-0.1,0.3-0.6,0.4-0.7c0,0,0.1-0.3,0.1-0.3c0,0,0.1-0.2,0.1-0.3
					c0,0,0.1-0.1,0.1-0.1c0,0,0-0.1,0-0.1c0-0.1,0-0.2,0-0.3c0,0,0.1-0.2,0.1-0.3c0,0-0.1-0.2-0.1-0.3c-0.1-0.1-0.3-0.1-0.4-0.1
					c0,0-0.1,0-0.1,0c-0.5,0-1,0.3-1.5,0.4c-0.1,0.1-0.7,0.3-0.8,0.4c-0.3,0.1-0.4,0.3-0.6,0.5c-0.1,0.2-0.2,0.4-0.4,0.4
					c-0.2,0-0.2-0.1-0.2-0.3c0-0.3,0.3-0.6,0.4-0.9c0,0,0-0.1,0-0.1c0-0.1,0.1-0.6,0.1-0.7c0,0,0-0.1,0-0.1c0-0.1,0-0.3,0-0.3
					c0,0-0.1-0.5-0.1-0.6c-0.1-0.4-0.2-0.9-0.5-1.3c0-0.1,0-0.1,0.1-0.1c0.1,0,0.1,0.1,0.3,0.1c0.1,0,0.3,0.2,0.3,0.2
					c0,0,0.2,0.2,0.3,0.3c0,0,0.1,0.2,0.1,0.2c0,0,0.2,0.1,0.3,0.2c0.2,0.1,0.4,0.3,0.6,0.4c0,0,0.2,0.2,0.2,0.2c0,0,0.2,0,0.2,0
					c0.2,0,0.3,0.1,0.5,0.2c0,0,0.3,0,0.3,0c0,0,0.1,0,0.1,0c0,0,0,0,0,0c0,0,0,0,0,0c0,0,0.1,0,0.1,0c0,0,0.1,0,0.1,0c0,0,0,0,0,0
					c0.1,0,0.3-0.1,0.3-0.2v-0.7c-0.1-0.2,0-0.3-0.1-0.5c0,0-0.1-0.2-0.1-0.2c0,0,0-0.2-0.1-0.2c0-0.1,0-0.2,0-0.2
					c0,0-0.1-0.1-0.1-0.1c-0.1-0.1-0.1-0.2-0.1-0.4c-0.1-0.2-0.2-0.3-0.3-0.5c0,0,0-0.2,0-0.2c0,0-0.2-0.2-0.2-0.3
					c-0.1-0.1-0.5-0.5-0.6-0.6c0,0,0-0.1,0-0.1c0-0.2,0.1-0.3,0.3-0.3c0.4,0,0.6,0.3,1,0.4c0.4,0.1,0.9,0.2,1.3,0.2
					c0.2,0,0.5,0,0.7-0.1c0.4-0.2,0.7-0.4,1.1-0.4c0.1,0,0.3,0,0.3,0.2c0,0,0,0,0,0c0,0-0.1,0.2-0.1,0.3c-0.1,0.2-0.3,0.2-0.5,0.3
					c-0.4,0.2-0.6,0.5-0.9,0.8c0,0-0.1,0.1-0.1,0.1c-0.2,0.4-0.3,0.7-0.4,1.1c0,0,0,0.1,0,0.2c0,0.1,0,0.2,0,0.2c0,0,0,0.1,0,0.1
					c0,0.1,0,0.3,0,0.3c0,0,0,0.3,0,0.3c0,0,0,0,0,0.1c0,0.2,0.1,0.5,0.4,0.5c0,0,0.1,0,0.1-0.1c0.1,0,0.4-0.1,0.4-0.1
					c0,0,0.1,0,0.1,0c0.1,0,0.3-0.1,0.3-0.1s0,0,0,0c0.1,0,0.1,0,0.1,0c0,0,0.1,0,0.1,0c0.1-0.1,0.2-0.1,0.3-0.1
					c0,0,0.1-0.1,0.1-0.1c0.1,0,0.3-0.2,0.3-0.2c0,0,0.3,0,0.3,0c0,0,0.2-0.2,0.2-0.2c0,0,0.2-0.1,0.2-0.1c0.1-0.1,0.5-0.3,0.5-0.4
					c0,0,0.1-0.1,0.1-0.1c0.1-0.1,0.2-0.1,0.3-0.2c0.1-0.1,0.1-0.1,0.3-0.1c0.1,0,0.1,0.1,0.1,0.2c0,0,0,0,0,0.1c0,0.1,0,0.2,0,0.3
					c-0.1,0.1-0.4,0.7-0.4,0.8c-0.1,0.4-0.1,0.8-0.1,1.1c0,0,0,0.2,0,0.2c0,0,0,0.1,0,0.1c0,0.1,0.1,0.4,0.1,0.5
					c0,0.2,0.1,0.2,0.1,0.4c0,0.1,0,0.1,0.1,0.2c0,0,0.2,0.2,0.2,0.5c0,0.1,0,0.2-0.1,0.2c-0.2,0-0.3-0.3-0.4-0.4
					c0,0-0.3-0.2-0.3-0.2c0,0-0.3-0.3-0.3-0.3c0,0-0.5-0.2-0.7-0.3c0,0-0.2-0.1-0.2-0.1c0,0-0.2-0.1-0.2-0.1c0,0-0.1,0-0.1,0
					c-0.1,0-0.5-0.1-0.6-0.1c0,0-0.2-0.1-0.2-0.1c0,0-0.2,0-0.2,0c0,0-0.1,0-0.1,0c0,0,0,0,0,0c0,0,0,0,0,0c-0.2,0-0.5,0-0.7,0.2
					c0,0,0,0,0,0c0,0,0,0,0,0c0,0,0,0.1,0,0.1c0,0,0,0.2,0,0.2c0,0,0,0.1,0,0.1v0c0,0,0,0,0,0c0,0,0,0.1,0,0.1c0,0,0.1,0.2,0.1,0.2
					c0,0.1,0.1,0.4,0.1,0.4c0,0.2-0.1,0.4,0.2,0.5c0,0.1,0.2,0.4,0.3,0.4c0,0,0.1,0.1,0.1,0.1c0,0,0,0.1,0,0.1c0,0,0,0.2,0,0.2
					c0,0,0.1,0.1,0.1,0.1c0,0,0.1,0.2,0.1,0.2c0.1,0.1,0.7,0.6,0.8,0.7c0.1,0.1,0.1,0.2,0.1,0.3c0,0.1-0.1,0.2-0.1,0.2h-0.4
					c0,0,0,0,0,0c-0.2-0.1-0.4-0.3-0.7-0.4c0,0-0.1,0-0.1,0c0,0-0.1,0-0.1,0c0,0-0.1-0.1-0.1-0.1c0,0-0.2,0-0.2,0c0,0-0.1,0-0.1,0
					C312,463.3,311.6,463.3,311.6,463.3z"/>
			</g>
			<g>
				<path stroke="#000000" stroke-width="0.5" stroke-miterlimit="10" d="M301.1,475c-0.1,0-0.5,0-0.5,0c-0.1,0-0.7,0.1-0.8,0.2
					c-0.1,0.2-0.3,0.2-0.5,0.2c0,0-0.2,0.1-0.2,0.1c0,0-0.1,0-0.1,0c-0.1,0-0.3,0-0.3-0.2c0,0,0-0.1,0.1-0.1c0-0.1,0.2-0.3,0.2-0.3
					c0.1-0.1,0.6-0.6,0.7-0.7c0-0.1,0.1-0.2,0.2-0.2c0.1-0.1,0.3-0.6,0.4-0.7c0,0,0.1-0.3,0.1-0.3c0,0,0.1-0.2,0.1-0.3
					c0,0,0.1-0.1,0.1-0.1c0,0,0-0.1,0-0.1c0-0.1,0-0.2,0-0.3c0,0,0.1-0.2,0.1-0.3c0,0-0.1-0.2-0.1-0.3c-0.1-0.1-0.3-0.1-0.4-0.1
					c0,0-0.1,0-0.1,0c-0.5,0-1,0.3-1.5,0.4c-0.1,0.1-0.7,0.3-0.8,0.4c-0.3,0.1-0.4,0.3-0.6,0.5c-0.1,0.2-0.2,0.4-0.4,0.4
					c-0.2,0-0.2-0.1-0.2-0.3c0-0.3,0.3-0.6,0.4-0.9c0,0,0-0.1,0-0.1c0-0.1,0.1-0.6,0.1-0.7c0,0,0-0.1,0-0.1c0-0.1,0-0.3,0-0.3
					c0,0-0.1-0.5-0.1-0.6c-0.1-0.4-0.2-0.9-0.5-1.3c0-0.1,0-0.1,0.1-0.1c0.1,0,0.1,0.1,0.3,0.1c0.1,0,0.3,0.2,0.3,0.2
					c0,0,0.2,0.2,0.3,0.3c0,0,0.1,0.2,0.1,0.2c0,0,0.2,0.1,0.3,0.2c0.2,0.1,0.4,0.3,0.6,0.4c0,0,0.2,0.2,0.2,0.2c0,0,0.2,0,0.2,0
					c0.2,0,0.3,0.1,0.5,0.2c0,0,0.3,0,0.3,0c0,0,0.1,0,0.1,0c0,0,0,0,0,0c0,0,0,0,0,0c0,0,0.1,0,0.1,0s0.1,0,0.1,0c0,0,0,0,0,0
					c0.1,0,0.3-0.1,0.3-0.2v-0.7c-0.1-0.2,0-0.3-0.1-0.5c0,0-0.1-0.2-0.1-0.2c0,0,0-0.2-0.1-0.2c0-0.1,0-0.2,0-0.2
					c0,0-0.1-0.1-0.1-0.1c-0.1-0.1-0.1-0.2-0.1-0.4c-0.1-0.2-0.2-0.3-0.3-0.5c0,0,0-0.2,0-0.2c0,0-0.2-0.2-0.2-0.3
					c-0.1-0.1-0.5-0.5-0.6-0.6c0,0,0-0.1,0-0.1c0-0.2,0.1-0.3,0.3-0.3c0.4,0,0.6,0.3,1,0.4c0.4,0.1,0.9,0.2,1.3,0.2
					c0.2,0,0.5,0,0.7-0.1c0.4-0.2,0.7-0.4,1.1-0.4c0.1,0,0.3,0,0.3,0.2c0,0,0,0,0,0c0,0-0.1,0.2-0.1,0.3c-0.1,0.2-0.3,0.2-0.5,0.3
					c-0.4,0.2-0.6,0.5-0.9,0.8c0,0-0.1,0.1-0.1,0.1c-0.2,0.4-0.3,0.7-0.4,1.1c0,0,0,0.1,0,0.2c0,0.1,0,0.2,0,0.2c0,0,0,0.1,0,0.1
					c0,0.1,0,0.3,0,0.3c0,0,0,0.3,0,0.3c0,0,0,0,0,0.1c0,0.2,0.1,0.5,0.4,0.5c0,0,0.1,0,0.1-0.1c0.1,0,0.4-0.1,0.4-0.1
					c0,0,0.1,0,0.1,0c0.1,0,0.3-0.1,0.3-0.1s0,0,0,0c0.1,0,0.1,0,0.1,0c0,0,0.1,0,0.1,0c0.1-0.1,0.2-0.1,0.3-0.1
					c0,0,0.1-0.1,0.1-0.1c0.1,0,0.3-0.2,0.3-0.2c0,0,0.3,0,0.3,0c0,0,0.2-0.2,0.2-0.2c0,0,0.2-0.1,0.2-0.1c0.1-0.1,0.5-0.3,0.5-0.4
					c0,0,0.1-0.1,0.1-0.1c0.1-0.1,0.2-0.1,0.3-0.2c0.1-0.1,0.1-0.1,0.3-0.1c0.1,0,0.1,0.1,0.1,0.2c0,0,0,0,0,0.1c0,0.1,0,0.2,0,0.3
					c-0.1,0.1-0.4,0.7-0.4,0.8c-0.1,0.4-0.1,0.8-0.1,1.1c0,0,0,0.2,0,0.2c0,0,0,0.1,0,0.1c0,0.1,0.1,0.4,0.1,0.5
					c0,0.2,0.1,0.2,0.1,0.4c0,0.1,0,0.1,0.1,0.2c0,0,0.2,0.2,0.2,0.5c0,0.1,0,0.2-0.1,0.2c-0.2,0-0.3-0.3-0.4-0.4
					c0,0-0.3-0.2-0.3-0.2c0,0-0.3-0.3-0.3-0.3c0,0-0.5-0.2-0.7-0.3c0,0-0.2-0.1-0.2-0.1c0,0-0.2-0.1-0.2-0.1c0,0-0.1,0-0.1,0
					c-0.1,0-0.5-0.1-0.6-0.1c0,0-0.2-0.1-0.2-0.1c0,0-0.2,0-0.2,0c0,0-0.1,0-0.1,0c0,0,0,0,0,0c0,0,0,0,0,0c-0.2,0-0.5,0-0.7,0.2
					c0,0,0,0,0,0c0,0,0,0,0,0c0,0,0,0.1,0,0.1c0,0,0,0.2,0,0.2c0,0,0,0.1,0,0.1v0c0,0,0,0,0,0c0,0,0,0.1,0,0.1c0,0,0.1,0.2,0.1,0.2
					c0,0.1,0.1,0.4,0.1,0.4c0,0.2-0.1,0.4,0.2,0.5c0,0.1,0.2,0.4,0.3,0.4c0,0,0.1,0.1,0.1,0.1c0,0,0,0.1,0,0.1c0,0,0,0.2,0,0.2
					c0,0,0.1,0.1,0.1,0.1c0,0,0.1,0.2,0.1,0.2c0.1,0.1,0.7,0.6,0.8,0.7c0.1,0.1,0.1,0.2,0.1,0.3c0,0.1-0.1,0.2-0.1,0.2h-0.4
					c0,0,0,0,0,0c-0.2-0.1-0.4-0.3-0.7-0.4c0,0-0.1,0-0.1,0c0,0-0.1,0-0.1,0c0,0-0.1-0.1-0.1-0.1c0,0-0.2,0-0.2,0c0,0-0.1,0-0.1,0
					C301.5,475,301.2,475,301.1,475z"/>
			</g>
		</g>
	</g>
	<circle fill="none" stroke="#000000" stroke-width="0.5" stroke-miterlimit="10" cx="301.1" cy="301.1" r="190.4"/>
</g>
</svg>
