<?xml version="1.0" encoding="utf-8"?>
<!-- Generator: Adobe Illustrator 28.0.0, SVG Export Plug-In . SVG Version: 6.00 Build 0)  -->
<svg version="1.1" id="Layer_1" xmlns="http://www.w3.org/2000/svg" xmlns:xlink="http://www.w3.org/1999/xlink" x="0px" y="0px"
	 viewBox="0 0 602.2 602.2" style="enable-background:new 0 0 602.2 602.2;" xml:space="preserve">
<style type="text/css">
	.st0{fill:none;stroke:#000000;stroke-width:0.5;stroke-miterlimit:10;}
	.st1{stroke:#000000;stroke-width:0.5;stroke-miterlimit:10;}
</style>
<ellipse class="st0" cx="301.1" cy="345.5" rx="104.3" ry="126"/>
<g>
	<path d="M403.1,285.7c0.1,0,0.8,0,2,0l0.4,0c0.1,0,0.1,0,0.2,0.1s0.1,0.2,0.2,0.4l0.3,0.7c0.1,0.3,0.2,0.6,0.3,0.9
		c0.1,0.3,0.1,0.5,0.1,0.4c0,0,0.1,0.1,0.1,0.4c0.1,0.2,0.2,0.4,0.2,0.6l0.3,0.9c0.1,0.1,0.1,0.3,0.2,0.4c0.1,0.1,0.1,0.2,0.1,0.2
		c0,0.1,0.1,0.2,0.2,0.4s0.2,0.3,0.2,0.4c0,0.1,0,0.2,0,0.2c-0.1,0-0.1-0.1-0.2-0.2c0,0-0.1-0.2-0.2-0.6c-0.1-0.1-0.1-0.2-0.2-0.2
		c0,0-0.1,0-0.3,0c-0.1,0-0.2,0-0.5,0l-6.9-0.2c-0.4,0-0.6,0-0.7,0c-0.1,0-0.1,0.3,0,0.6c0,0,0,0.1,0.2,0.3c0,0.1,0,0.1-0.1,0.1
		c-0.1,0-0.2-0.1-0.3-0.5c0,0-0.1-0.2-0.2-0.5c-0.1-0.2-0.1-0.4-0.2-0.5c-0.1-0.4-0.3-0.8-0.4-1.2l-0.1-0.2c0,0-0.1-0.1-0.1-0.1
		c0-0.1,0-0.1,0.1-0.2c0.1,0,0.1,0,0.2,0.1c0,0,0,0.1,0.1,0.2l0.1,0.1c0.1,0.3,0.2,0.4,0.2,0.5c0.1,0,0.4,0.1,1,0.1l6.7,0.1
		c0.2,0,0.3,0,0.4,0c0,0,0.1,0,0.1,0c0.1,0,0.1-0.2,0-0.5c-0.4-1-0.7-1.7-1-2.1c-0.4-0.5-1-0.8-1.8-0.9c-0.3,0-0.5-0.1-0.7-0.1
		c-0.1,0-0.1,0-0.1-0.1C403.1,285.8,403.1,285.8,403.1,285.7z"/>
	<path d="M397.1,278.1c0.3-0.1,0.4,0,0.6,0.2c0.1,0.1,0,0.2-0.1,0.3c0,0,0,0.1,0,0.1c0,0.1,0.3,0.1,0.8,0.2l2.3,0.3
		c0.1,0,1.1,0.2,3.1,0.5c1,0.2,1.9,0.4,2.6,0.8c0.4,0.2,0.7,0.5,0.8,0.8c0.1,0.3,0.1,0.5-0.1,0.7c-0.1,0.1-0.2,0.1-0.4,0
		c-0.1-0.1-0.2-0.1-0.3-0.3c0-0.1-0.1-0.2,0-0.2c0,0,0.1-0.1,0.2-0.2c0.1-0.1,0.1-0.1,0.1-0.2c-0.1-0.1-0.3-0.3-0.6-0.4
		c-0.4-0.2-0.7-0.3-1.2-0.4c-0.6-0.1-1.1-0.1-1.5,0c-0.1,0-0.2,0.1-0.3,0.1l-0.3,0.1l-3.2,1.4c-0.5,0.2-0.7,0.5-0.6,0.7
		c0.1,0.3,0.5,0.4,1.2,0.4c0.2,0,0.4,0,0.4,0.1c0,0.1,0,0.1-0.1,0.1c-0.1,0.1-0.4,0.1-0.9,0c-0.6-0.1-1.1-0.4-1.3-0.8
		c-0.1-0.3-0.1-0.6,0-0.8c0.1-0.1,0.4-0.3,0.8-0.5l0.3-0.1l2-0.8c0.3-0.1,0.5-0.3,0.8-0.4l-0.3-0.1c-0.2,0-0.4,0-0.7-0.1l-0.7-0.1
		l-2-0.2c-0.7-0.1-1.2-0.2-1.4-0.2s-0.3-0.2-0.4-0.3C396.8,278.4,396.9,278.2,397.1,278.1z"/>
	<path d="M394.3,272.3c0.1-0.1,0.3-0.1,0.4-0.1c0.2,0,0.3,0.1,0.3,0.2c0.1,0.1,0,0.2,0,0.2l-0.1,0c0,0-0.1,0-0.1,0
		c-0.2,0.1-0.2,0.2-0.1,0.4c0.1,0.2,0.5,0.4,1,0.5c0.6,0.2,1.3,0.2,2.2,0.2l2.1-0.1c0.2,0,0.3,0,0.3,0.1c0.1,0.2,0.1,0.3,0.1,0.3
		c0.1,0.1,0.1,0.2,0.2,0.3l0,0.1c0,0.1,0,0.1,0,0.1c0,0,0,0-0.1,0l-0.1,0l-5,0.3c-0.1,0-0.1,0.1,0,0.2c0,0,0,0,0,0
		c0,0,0,0.1,0.1,0.1l0.1,0.1c0.1,0.1,0.1,0.2,0,0.2c0,0-0.2-0.1-0.4-0.5c-0.2-0.4-0.4-0.6-0.5-0.7c0,0-0.1-0.1-0.1-0.1
		c0,0,0-0.1,0-0.1c0,0,0.2,0,0.5-0.1l1.2-0.1c-1.2-0.2-2-0.5-2.3-1C393.9,272.7,393.9,272.4,394.3,272.3z"/>
	<path d="M390,266c0,0,0.1,0,0.3,0l3.9-0.5c0.4,0,0.6-0.1,0.8-0.2c0.2-0.1,0.2-0.2,0.1-0.4c-0.2-0.3-0.5-0.4-1-0.5
		c-0.1,0-0.2,0-0.2-0.1c0,0,0,0,0-0.1c0.1,0,0.2,0,0.5,0c0.5,0.1,0.9,0.4,1.1,0.8c0.1,0.2,0.2,0.4,0.2,0.6c0,0.2-0.1,0.3-0.3,0.4
		c-0.1,0.1-0.2,0.1-0.4,0.1c0.9,0.1,1.5,0.4,1.8,0.9c0.2,0.4,0.3,0.7,0.2,1.1c-0.1,0.4-0.3,0.7-0.7,0.9c-0.4,0.2-0.9,0.4-1.5,0.4
		c-0.6,0-1.3-0.1-1.9-0.3c-0.9-0.3-1.5-0.7-1.8-1.2c-0.3-0.5-0.2-1,0.2-1.3l-0.7,0.1c-0.1,0-0.2,0-0.3,0c0,0,0-0.1-0.1-0.1
		s0-0.1-0.1-0.2c-0.1-0.2-0.2-0.3-0.3-0.3c0,0-0.1,0-0.1-0.1C389.9,266,389.9,266,390,266z M391.6,266.7c-0.2,0.1-0.3,0.3-0.4,0.5
		c-0.1,0.2,0,0.4,0.1,0.6c0.2,0.3,0.6,0.6,1.2,0.6c0.7,0.1,1.3,0.1,2,0c0.6-0.1,1.2-0.2,1.5-0.5c0.5-0.3,0.6-0.6,0.3-1
		c-0.1-0.2-0.4-0.4-0.8-0.5s-0.8-0.1-1.3-0.1l-2.2,0.2C391.8,266.7,391.7,266.7,391.6,266.7z"/>
</g>
<g>
	<g>
		<path class="st1" d="M301,478.6c0.1,0,0.5,0,0.5,0c0.1,0,0.7-0.1,0.8-0.2c0.1-0.2,0.3-0.2,0.5-0.2l0.2-0.1h0.1
			c0.1,0,0.3,0,0.3,0.2c0,0,0,0.1-0.1,0.1c0,0.1-0.2,0.3-0.2,0.3c-0.1,0.1-0.6,0.6-0.7,0.7c0,0.1-0.1,0.2-0.2,0.2
			c-0.1,0.1-0.3,0.6-0.4,0.7l-0.1,0.3c0,0-0.1,0.2-0.1,0.3l-0.1,0.1v0.1c0,0.1,0,0.2,0,0.3c0,0-0.1,0.2-0.1,0.3c0,0,0.1,0.2,0.1,0.3
			c0.1,0.1,0.3,0.1,0.4,0.1h0.1c0.5,0,1-0.3,1.5-0.4c0.1-0.1,0.7-0.3,0.8-0.4c0.3-0.1,0.4-0.3,0.6-0.5c0.1-0.2,0.2-0.4,0.4-0.4
			c0.2,0,0.2,0.1,0.2,0.3c0,0.3-0.3,0.6-0.4,0.9v0.1c0,0.1-0.1,0.6-0.1,0.7v0.1c0,0.1,0,0.3,0,0.3s0.1,0.5,0.1,0.6
			c0.1,0.4,0.2,0.9,0.5,1.3c0,0.1,0,0.1-0.1,0.1s-0.1-0.1-0.3-0.1c-0.1,0-0.3-0.2-0.3-0.2s-0.2-0.2-0.3-0.3l-0.1-0.2
			c0,0-0.2-0.1-0.3-0.2c-0.2-0.1-0.4-0.3-0.6-0.4l-0.2-0.2h-0.2c-0.2,0-0.3-0.1-0.5-0.2h-0.3h-0.1l0,0l0,0h-0.1h-0.1l0,0
			c-0.1,0-0.3,0.1-0.3,0.2v0.7c0.1,0.2,0,0.3,0.1,0.5l0.1,0.2c0,0,0,0.2,0.1,0.2c0,0.1,0,0.2,0,0.2l0.1,0.1c0.1,0.1,0.1,0.2,0.1,0.4
			c0.1,0.2,0.2,0.3,0.3,0.5v0.2c0,0,0.2,0.2,0.2,0.3c0.1,0.1,0.5,0.5,0.6,0.6v0.1c0,0.2-0.1,0.3-0.3,0.3c-0.4,0-0.6-0.3-1-0.4
			s-0.9-0.2-1.3-0.2c-0.2,0-0.5,0-0.7,0.1c-0.4,0.2-0.7,0.4-1.1,0.4c-0.1,0-0.3,0-0.3-0.2l0,0c0,0,0.1-0.2,0.1-0.3
			c0.1-0.2,0.3-0.2,0.5-0.3c0.4-0.2,0.6-0.5,0.9-0.8l0.1-0.1c0.2-0.4,0.3-0.7,0.4-1.1c0,0,0-0.1,0-0.2s0-0.2,0-0.2v-0.1
			c0-0.1,0-0.3,0-0.3v-0.3c0,0,0,0,0-0.1c0-0.2-0.1-0.5-0.4-0.5c0,0-0.1,0-0.1,0.1c-0.1,0-0.4,0.1-0.4,0.1h-0.1
			c-0.1,0-0.3,0.1-0.3,0.1l0,0c-0.1,0-0.1,0-0.1,0h-0.1c-0.1,0.1-0.2,0.1-0.3,0.1l-0.1,0.1c-0.1,0-0.3,0.2-0.3,0.2h-0.3l-0.2,0.2
			l-0.2,0.1c-0.1,0.1-0.5,0.3-0.5,0.4l-0.1,0.1c-0.1,0.1-0.2,0.1-0.3,0.2c-0.1,0.1-0.1,0.1-0.3,0.1c-0.1,0-0.1-0.1-0.1-0.2
			c0,0,0,0,0-0.1s0-0.2,0-0.3c0.1-0.1,0.4-0.7,0.4-0.8c0.1-0.4,0.1-0.8,0.1-1.1V482v-0.1c0-0.1-0.1-0.4-0.1-0.5
			c0-0.2-0.1-0.2-0.1-0.4c0-0.1,0-0.1-0.1-0.2c0,0-0.2-0.2-0.2-0.5c0-0.1,0-0.2,0.1-0.2c0.2,0,0.3,0.3,0.4,0.4l0.3,0.2l0.3,0.3
			c0,0,0.5,0.2,0.7,0.3l0.2,0.1l0.2,0.1h0.1c0.1,0,0.5,0.1,0.6,0.1l0.2,0.1h0.2h0.1l0,0l0,0c0.2,0,0.5,0,0.7-0.2l0,0l0,0v-0.1v-0.2
			v-0.1l0,0l0,0V481l-0.1-0.2c0-0.1-0.1-0.4-0.1-0.4c0-0.2,0.1-0.4-0.2-0.5c0-0.1-0.2-0.4-0.3-0.4l-0.1-0.1v-0.1v-0.2l-0.1-0.1
			l-0.1-0.2c-0.1-0.1-0.7-0.6-0.8-0.7c-0.1-0.1-0.1-0.2-0.1-0.3c0-0.1,0.1-0.2,0.1-0.2h0.4l0,0c0.2,0.1,0.4,0.3,0.7,0.4h0.1h0.1
			l0.1,0.1h0.2h0.1C300.6,478.5,301,478.6,301,478.6z"/>
	</g>
	<g>
		<path class="st1" d="M311.4,466.9c0.1,0,0.5,0,0.5,0c0.1,0,0.7-0.1,0.8-0.2c0.1-0.2,0.3-0.2,0.5-0.2l0.2-0.1h0.1
			c0.1,0,0.3,0,0.3,0.2c0,0,0,0.1-0.1,0.1c0,0.1-0.2,0.3-0.2,0.3c-0.1,0.1-0.6,0.6-0.7,0.7c0,0.1-0.1,0.2-0.2,0.2
			c-0.1,0.1-0.3,0.6-0.4,0.7l-0.1,0.3c0,0-0.1,0.2-0.1,0.3l-0.1,0.1v0.1c0,0.1,0,0.2,0,0.3c0,0-0.1,0.2-0.1,0.3c0,0,0.1,0.2,0.1,0.3
			c0.1,0.1,0.3,0.1,0.4,0.1h0.1c0.5,0,1-0.3,1.5-0.4c0.1-0.1,0.7-0.3,0.8-0.4c0.3-0.1,0.4-0.3,0.6-0.5c0.1-0.2,0.2-0.4,0.4-0.4
			c0.2,0,0.2,0.1,0.2,0.3c0,0.3-0.3,0.6-0.4,0.9v0.1c0,0.1-0.1,0.6-0.1,0.7v0.1c0,0.1,0,0.3,0,0.3s0.1,0.5,0.1,0.6
			c0.1,0.4,0.2,0.9,0.5,1.3c0,0.1,0,0.1-0.1,0.1s-0.1-0.1-0.3-0.1c-0.1,0-0.3-0.2-0.3-0.2s-0.2-0.2-0.3-0.3l-0.1-0.2
			c0,0-0.2-0.1-0.3-0.2c-0.2-0.1-0.4-0.3-0.6-0.4l-0.2-0.2h-0.2c-0.2,0-0.3-0.1-0.5-0.2h-0.3h-0.1l0,0l0,0h-0.1h-0.1l0,0
			c-0.1,0-0.3,0.1-0.3,0.2v0.7c0.1,0.2,0,0.3,0.1,0.5l0.1,0.2c0,0,0,0.2,0.1,0.2c0,0.1,0,0.2,0,0.2l0.1,0.1c0.1,0.1,0.1,0.2,0.1,0.4
			c0.1,0.2,0.2,0.3,0.3,0.5v0.2c0,0,0.2,0.2,0.2,0.3c0.1,0.1,0.5,0.5,0.6,0.6v0.1c0,0.2-0.1,0.3-0.3,0.3c-0.4,0-0.6-0.3-1-0.4
			s-0.9-0.2-1.3-0.2c-0.2,0-0.5,0-0.7,0.1c-0.4,0.2-0.7,0.4-1.1,0.4c-0.1,0-0.3,0-0.3-0.2l0,0c0,0,0.1-0.2,0.1-0.3
			c0.1-0.2,0.3-0.2,0.5-0.3c0.4-0.2,0.6-0.5,0.9-0.8l0.1-0.1c0.2-0.4,0.3-0.7,0.4-1.1c0,0,0-0.1,0-0.2s0-0.2,0-0.2v-0.1
			c0-0.1,0-0.3,0-0.3v-0.3c0,0,0,0,0-0.1c0-0.2-0.1-0.5-0.4-0.5c0,0-0.1,0-0.1,0.1c-0.1,0-0.4,0.1-0.4,0.1h-0.1
			c-0.1,0-0.3,0.1-0.3,0.1l0,0c-0.1,0-0.1,0-0.1,0h-0.1c-0.1,0.1-0.2,0.1-0.3,0.1l-0.1,0.1c-0.1,0-0.3,0.2-0.3,0.2h-0.3l-0.2,0.2
			l-0.2,0.1c-0.1,0.1-0.5,0.3-0.5,0.4l-0.1,0.1c-0.1,0.1-0.2,0.1-0.3,0.2c-0.1,0.1-0.1,0.1-0.3,0.1c-0.1,0-0.1-0.1-0.1-0.2
			c0,0,0,0,0-0.1s0-0.2,0-0.3c0.1-0.1,0.4-0.7,0.4-0.8c0.1-0.4,0.1-0.8,0.1-1.1v-0.2v-0.1c0-0.1-0.1-0.4-0.1-0.5
			c0-0.2-0.1-0.2-0.1-0.4c0-0.1,0-0.1-0.1-0.2c0,0-0.2-0.2-0.2-0.5c0-0.1,0-0.2,0.1-0.2c0.2,0,0.3,0.3,0.4,0.4l0.3,0.2l0.3,0.3
			c0,0,0.5,0.2,0.7,0.3l0.2,0.1l0.2,0.1h0.1c0.1,0,0.5,0.1,0.6,0.1l0.2,0.1h0.2h0.1l0,0l0,0c0.2,0,0.5,0,0.7-0.2l0,0l0,0v-0.1v-0.2
			v-0.1l0,0l0,0v-0.1l-0.1-0.2c0-0.1-0.1-0.4-0.1-0.4c0-0.2,0.1-0.4-0.2-0.5c0-0.1-0.2-0.4-0.3-0.4l-0.1-0.1v-0.1v-0.2l-0.1-0.1
			l-0.1-0.2c-0.1-0.1-0.7-0.6-0.8-0.7c-0.1-0.1-0.1-0.2-0.1-0.3c0-0.1,0.1-0.2,0.1-0.2h0.4l0,0c0.2,0.1,0.4,0.3,0.7,0.4h0.1h0.1
			l0.1,0.1h0.2h0.1C311,466.8,311.3,466.9,311.4,466.9z"/>
	</g>
	<g>
		<path class="st1" d="M290.6,466.9c0.1,0,0.5,0,0.5,0c0.1,0,0.7-0.1,0.8-0.2c0.1-0.2,0.3-0.2,0.5-0.2l0.2-0.1h0.1
			c0.1,0,0.3,0,0.3,0.2c0,0,0,0.1-0.1,0.1c0,0.1-0.2,0.3-0.2,0.3c-0.1,0.1-0.6,0.6-0.7,0.7c0,0.1-0.1,0.2-0.2,0.2
			c-0.1,0.1-0.3,0.6-0.4,0.7l-0.1,0.3c0,0-0.1,0.2-0.1,0.3l-0.1,0.1v0.1c0,0.1,0,0.2,0,0.3c0,0-0.1,0.2-0.1,0.3c0,0,0.1,0.2,0.1,0.3
			c0.1,0.1,0.3,0.1,0.4,0.1h0.1c0.5,0,1-0.3,1.5-0.4c0.1-0.1,0.7-0.3,0.8-0.4c0.3-0.1,0.4-0.3,0.6-0.5c0.1-0.2,0.2-0.4,0.4-0.4
			c0.2,0,0.2,0.1,0.2,0.3c0,0.3-0.3,0.6-0.4,0.9v0.1c0,0.1-0.1,0.6-0.1,0.7v0.1c0,0.1,0,0.3,0,0.3s0.1,0.5,0.1,0.6
			c0.1,0.4,0.2,0.9,0.5,1.3c0,0.1,0,0.1-0.1,0.1s-0.1-0.1-0.3-0.1c-0.1,0-0.3-0.2-0.3-0.2s-0.2-0.2-0.3-0.3l-0.1-0.2
			c0,0-0.2-0.1-0.3-0.2c-0.2-0.1-0.4-0.3-0.6-0.4l-0.2-0.2h-0.2c-0.2,0-0.3-0.1-0.5-0.2H292h-0.1l0,0l0,0h-0.1h-0.1l0,0
			c-0.1,0-0.3,0.1-0.3,0.2v0.7c0.1,0.2,0,0.3,0.1,0.5l0.1,0.2c0,0,0,0.2,0.1,0.2c0,0.1,0,0.2,0,0.2l0.1,0.1c0.1,0.1,0.1,0.2,0.1,0.4
			c0.1,0.2,0.2,0.3,0.3,0.5v0.2c0,0,0.2,0.2,0.2,0.3c0.1,0.1,0.5,0.5,0.6,0.6v0.1c0,0.2-0.1,0.3-0.3,0.3c-0.4,0-0.6-0.3-1-0.4
			s-0.9-0.2-1.3-0.2c-0.2,0-0.5,0-0.7,0.1c-0.4,0.2-0.7,0.4-1.1,0.4c-0.1,0-0.3,0-0.3-0.2l0,0c0,0,0.1-0.2,0.1-0.3
			c0.1-0.2,0.3-0.2,0.5-0.3c0.4-0.2,0.6-0.5,0.9-0.8l0.1-0.1c0.2-0.4,0.3-0.7,0.4-1.1c0,0,0-0.1,0-0.2s0-0.2,0-0.2v-0.1
			c0-0.1,0-0.3,0-0.3v-0.3c0,0,0,0,0-0.1c0-0.2-0.1-0.5-0.4-0.5c0,0-0.1,0-0.1,0.1c-0.1,0-0.4,0.1-0.4,0.1h-0.1
			c-0.1,0-0.3,0.1-0.3,0.1l0,0c-0.1,0-0.1,0-0.1,0h-0.1c-0.1,0.1-0.2,0.1-0.3,0.1l-0.1,0.1c-0.1,0-0.3,0.2-0.3,0.2h-0.3l-0.2,0.2
			l-0.2,0.1c-0.1,0.1-0.5,0.3-0.5,0.4l-0.1,0.1c-0.1,0.1-0.2,0.1-0.3,0.2c-0.1,0.1-0.1,0.1-0.3,0.1c-0.1,0-0.1-0.1-0.1-0.2
			c0,0,0,0,0-0.1s0-0.2,0-0.3c0.1-0.1,0.4-0.7,0.4-0.8c0.1-0.4,0.1-0.8,0.1-1.1v-0.2v-0.1c0-0.1-0.1-0.4-0.1-0.5
			c0-0.2-0.1-0.2-0.1-0.4c0-0.1,0-0.1-0.1-0.2c0,0-0.2-0.2-0.2-0.5c0-0.1,0-0.2,0.1-0.2c0.2,0,0.3,0.3,0.4,0.4l0.3,0.2l0.3,0.3
			c0,0,0.5,0.2,0.7,0.3l0.2,0.1l0.2,0.1h0.1c0.1,0,0.5,0.1,0.6,0.1l0.2,0.1h0.2h0.1l0,0l0,0c0.2,0,0.5,0,0.7-0.2l0,0l0,0v-0.1v-0.2
			v-0.1l0,0l0,0v-0.1l-0.1-0.2c0-0.1-0.1-0.4-0.1-0.4c0-0.2,0.1-0.4-0.2-0.5c0-0.1-0.2-0.4-0.3-0.4l-0.1-0.1v-0.1v-0.2l-0.1-0.1
			l-0.1-0.2c-0.1-0.1-0.7-0.6-0.8-0.7c-0.1-0.1-0.1-0.2-0.1-0.3c0-0.1,0.1-0.2,0.1-0.2h0.4l0,0c0.2,0.1,0.4,0.3,0.7,0.4h0.1h0.1
			l0.1,0.1h0.2h0.1C290.2,466.9,290.5,466.9,290.6,466.9z"/>
	</g>
</g>
<circle class="st0" cx="301.1" cy="301.1" r="190.4"/>
<g>
	<path d="M192.6,319.7c-0.1,0-0.1-0.1-0.1-0.2c0-0.1,0.1-0.1,0.3-0.1c0.1,0,0.3,0,0.4,0c0.3,0,0.6,0,0.8-0.1
		c0.3-0.1,0.5-0.3,0.7-0.7c0.1-0.2,0.2-0.4,0.2-0.6c0.1-0.4,0.1-0.6,0.1-0.7l-7.1-1.4c-0.3-0.1-0.5,0-0.6,0.1
		c-0.1,0.1-0.1,0.3-0.2,0.6c0,0.1-0.1,0.1-0.1,0.1c-0.1,0-0.1-0.1-0.1-0.2c0-0.1,0-0.1,0-0.2c0.1-0.5,0.2-0.8,0.2-1
		c0.1-0.3,0.1-0.5,0.1-0.7c0-0.2,0.1-0.5,0.2-0.9c0-0.2,0.1-0.3,0.1-0.3c0.1,0,0.1,0.2,0,0.5c0,0.2,0,0.4,0.1,0.5
		c0.1,0.1,0.2,0.1,0.5,0.2l7.1,1.4c0.2-0.8,0.2-1.3,0.2-1.5c-0.1-0.5-0.5-0.9-1.3-1.2c-0.2-0.1-0.3-0.2-0.3-0.2
		c0-0.1,0.1-0.1,0.3-0.1c0.1,0,0.2,0,0.3,0.1l0.3,0.1c0.4,0.1,0.8,0.2,1.4,0.4l-0.1,0.5l-0.5,2.4c-0.1,0.3-0.2,0.7-0.3,1.3l-0.4,2
		c-0.4-0.1-1.1-0.2-2-0.2C192.8,319.7,192.7,319.7,192.6,319.7C192.7,319.7,192.6,319.7,192.6,319.7z"/>
	<path d="M190.3,323.6c-0.2,0-0.3-0.1-0.4-0.2s-0.1-0.3-0.1-0.5c0-0.1,0.1-0.3,0.2-0.3c0.1-0.1,0.2-0.1,0.3-0.1
		c0.1,0,0.2,0.1,0.3,0.2s0.1,0.1,0.1,0.1c0.1,0,0.2-0.1,0.2-0.2c0-0.2-0.1-0.4-0.3-0.6c-0.3-0.2-0.9-0.4-1.7-0.6l-2.3-0.4
		c-0.1,0-0.2,0-0.2,0.1s-0.1,0.3-0.1,0.6c0,0.1-0.1,0.1-0.1,0.1c-0.1,0-0.1-0.1-0.1-0.2c0-0.2,0.1-0.4,0.1-0.5
		c0-0.2,0.1-0.5,0.1-0.9c0-0.2,0.1-0.4,0.1-0.5c0-0.1,0-0.2,0.1-0.4c0-0.1,0.1-0.2,0.1-0.2s0.1,0.1,0,0.2l0,0.2c0,0.3,0,0.4,0,0.5
		c0,0,0.2,0.1,0.4,0.1l3.3,0.5c0.4,0.1,0.7,0,0.8-0.1s0.2-0.3,0.2-0.6c0-0.1,0.1-0.1,0.1-0.1s0.1,0.1,0.1,0.1l0,0.1
		c0,0.1,0,0.2-0.1,0.4s0,0.2,0,0.2c0,0.3,0,0.6,0.1,1l0,0.2l0,0.1c-0.2,0-0.4,0-0.6,0l-0.2,0c0.5,0.3,0.7,0.7,0.6,1.2
		c0,0.3-0.2,0.4-0.3,0.6S190.6,323.6,190.3,323.6z"/>
	<path d="M187.7,328.8c-0.8-0.1-1.4-0.4-1.8-1s-0.6-1.2-0.6-1.8c0.1-0.7,0.4-1.3,1-1.7s1.3-0.6,2-0.5c0.8,0.1,1.4,0.4,1.9,1
		c0.5,0.5,0.6,1.2,0.6,1.9c-0.1,0.7-0.4,1.3-1,1.7C189.2,328.7,188.5,328.9,187.7,328.8z M187.9,327.7c0.9,0.1,1.6,0.1,2.1-0.1
		c0.4-0.2,0.6-0.5,0.7-0.9c0.1-0.4-0.1-0.8-0.5-1.1c-0.4-0.3-1-0.5-1.8-0.6c-0.8-0.1-1.4-0.1-1.9,0.2c-0.5,0.2-0.8,0.5-0.8,1
		c0,0.4,0.1,0.7,0.3,0.9C186.3,327.3,187,327.6,187.9,327.7z"/>
	<path d="M187.2,334.7c-0.8-0.1-1.4-0.4-1.9-0.9s-0.7-1.1-0.7-1.8c0-0.5,0.3-0.9,0.7-1.2l-2.8-0.2c-0.2,0-0.3,0-0.3,0
		c0,0-0.1,0-0.1,0.1c0,0.1-0.1,0.4-0.1,0.7c0,0.1,0,0.1-0.1,0.1c-0.1,0-0.1-0.1-0.1-0.2l0-0.2c0-0.1,0-0.1,0-0.3c0-0.1,0-0.2,0-0.3
		c0,0,0-0.2,0-0.4c0-0.2,0-0.4,0-0.5l0.1-0.6c0-0.2,0.1-0.3,0.1-0.3c0.1,0,0.1,0.1,0.1,0.2l0,0.4c0,0.2,0,0.4,0.1,0.4
		c0,0,0.4,0,1.1,0.1l6,0.5c0.2,0,0.3-0.1,0.3-0.3c0-0.3,0-0.5,0-0.5c0-0.1,0-0.1,0.1-0.1c0.1,0,0.1,0.1,0.1,0.3c0,0.4,0,0.8,0.2,1.2
		c0.1,0.1,0.1,0.2,0.1,0.2c0,0.1,0,0.1-0.1,0.1s-0.2,0-0.5,0c0.4,0.3,0.6,0.8,0.5,1.3c-0.1,0.7-0.4,1.2-0.9,1.6
		C188.7,334.6,188,334.7,187.2,334.7z M187.3,333.6c0.6,0.1,1.2,0,1.6-0.1c0.6-0.2,1-0.6,1-1.1c0-0.3-0.1-0.5-0.2-0.7
		c-0.2-0.2-0.4-0.3-0.7-0.4c-0.4,0-1.1-0.1-2.2-0.2c-0.6,0-0.9-0.1-1-0.1s-0.2,0-0.4,0.1c-0.3,0.2-0.5,0.5-0.6,0.9
		c0,0.4,0.1,0.7,0.4,1C185.8,333.3,186.5,333.5,187.3,333.6z"/>
	<path d="M184.5,337.9c-0.1,0-0.1-0.1-0.1-0.2c0,0,0-0.1,0-0.3c0-0.2,0-0.4,0.1-0.6l0.1-1.2c0,0,0-0.1,0-0.1c0-0.1,0-0.1,0.1-0.1
		c0.1,0,0.1,0.1,0.1,0.2c0,0.3,0,0.5,0,0.5c0,0,0.2,0.1,0.5,0.1l3.6,0.2c0.2,0,0.3,0,0.4,0s0.1-0.1,0.1-0.1l0-0.3c0,0,0-0.1,0-0.1
		c0-0.1,0-0.1,0.1-0.1c0,0,0.1,0.1,0.1,0.2c0,0.5,0.1,1,0.3,1.4l0.1,0.1c-0.1,0.1-0.3,0.1-0.7,0.1c0,0,0,0-0.1,0c-0.1,0-0.3,0-0.5,0
		l-3.3-0.2c-0.3,0-0.5,0-0.6,0c-0.1,0-0.1,0-0.1,0.1c0,0.1-0.1,0.3-0.1,0.5C184.6,337.8,184.5,337.9,184.5,337.9z M192,337.4
		c-0.4,0-0.5-0.2-0.5-0.6c0-0.2,0.1-0.3,0.2-0.4c0.1-0.1,0.2-0.1,0.4-0.1c0.4,0,0.6,0.2,0.5,0.6S192.3,337.4,192,337.4z"/>
	<path d="M188.4,343c-0.4,0-0.5-0.2-0.5-0.6c0-0.4,0.2-0.5,0.5-0.5c0.1,0,0.2,0,0.4,0.1c0.1,0,0.1,0,0.2,0c0.2,0,0.3-0.1,0.4-0.2
		c0.1-0.2,0.2-0.4,0.2-0.6c0-0.5-0.2-0.9-0.6-1.1s-1-0.4-1.7-0.5c-0.8,0-1.5,0.1-2,0.3s-0.7,0.6-0.7,1.1c0,0.3,0.1,0.6,0.3,0.9
		c0.1,0.1,0.3,0.3,0.5,0.5c0,0,0.1,0.1,0.1,0.1c0,0.1,0,0.1-0.1,0.1c-0.1,0-0.3-0.1-0.6-0.4c-0.4-0.4-0.5-0.8-0.5-1.4
		c0-0.7,0.3-1.3,0.8-1.7c0.5-0.4,1.2-0.7,1.9-0.6c0.8,0,1.5,0.3,2,0.8c0.5,0.5,0.8,1.1,0.8,1.9c0,0.5-0.2,0.9-0.4,1.2
		C189,342.8,188.7,343,188.4,343z"/>
	<path d="M186.9,350.8c-0.8,0-1.4-0.2-2-0.7c-0.5-0.5-0.8-1-0.8-1.8c0-0.7,0.2-1.3,0.8-1.8c0.5-0.5,1.2-0.8,1.9-0.8
		c0.8,0,1.5,0.2,2,0.7c0.5,0.5,0.8,1.1,0.8,1.8c0,0.7-0.2,1.3-0.8,1.8C188.3,350.5,187.7,350.8,186.9,350.8z M186.9,349.7
		c0.9,0,1.6-0.2,2-0.4c0.4-0.2,0.5-0.5,0.5-1c0-0.4-0.2-0.8-0.7-1c-0.5-0.2-1.1-0.4-1.9-0.3c-0.8,0-1.4,0.2-1.9,0.4
		c-0.4,0.3-0.7,0.7-0.7,1.1c0,0.4,0.2,0.6,0.4,0.8C185.2,349.6,186,349.7,186.9,349.7z"/>
	<path d="M192.1,355.3c-0.2,0-0.3,0-0.4-0.1s-0.2-0.2-0.2-0.4c0-0.2,0-0.3,0.1-0.4s0.2-0.2,0.4-0.2c0.1,0,0.3,0,0.4,0.1
		c0,0,0.1,0,0.1,0c0.2,0,0.3-0.1,0.3-0.4c0-0.4-0.3-0.7-0.9-0.8c-0.3-0.1-0.8-0.1-1.6,0l-0.6,0l0,0.8c0,0.2,0,0.2-0.1,0.2
		c-0.1,0-0.1-0.1-0.1-0.3l0-0.7l-4.7,0.2c-0.1,0-0.2,0.1-0.2,0.3c0,0.3,0,0.5,0,0.6c0,0,0,0,0,0c-0.1,0-0.1,0-0.1-0.1
		c0,0,0-0.1,0-0.1l-0.1-1l-0.1-1.3c0-0.1,0-0.2,0.1-0.2c0.1,0,0.1,0.1,0.1,0.2c0,0.4,0.1,0.6,0.1,0.7c0,0,0,0,0.1,0l0.2,0l4.6-0.2
		c0-0.3,0-0.5,0-0.5c0,0,0-0.1,0.1-0.1c0.1,0,0.1,0.1,0.1,0.2l0,0.4c1,0,1.8,0.1,2.2,0.3c0.7,0.3,1.1,0.9,1.1,1.6
		c0,0.4-0.1,0.6-0.2,0.9C192.5,355.2,192.3,355.3,192.1,355.3z"/>
	<path d="M191.5,362.4c-0.8,0.1-1.4-0.2-1.9-0.8c-0.3-0.4-0.5-0.9-0.6-1.5c0-0.3,0-0.6,0-0.9l-3.4,0.3c-0.2,0-0.3,0-0.3,0.1
		c-0.1,0.1-0.2,0.1-0.2,0.3c0,0.2,0,0.5,0,0.7c0,0.1,0,0.1-0.1,0.1c-0.1,0-0.1,0-0.1-0.2c0,0,0-0.1,0-0.1c0-0.4-0.1-1.3-0.2-2.5
		l0-0.2c0-0.2,0-0.4,0.1-0.4c0.1,0,0.1,0.1,0.1,0.2c0,0.4,0.1,0.6,0.2,0.6c0,0.1,0.1,0.1,0.2,0.1l7.1-0.7c0.2,0,0.4-0.1,0.4-0.2
		c0-0.1,0-0.2,0-0.4l0-0.1c0,0,0-0.1,0-0.1c0-0.1,0-0.2,0.1-0.2c0.1,0,0.1,0.1,0.1,0.3l0.2,2.6c0.1,0.9,0,1.6-0.3,2
		C192.6,362,192.1,362.3,191.5,362.4z M191.3,361.1c1.2-0.1,1.8-0.7,1.7-1.7c0-0.3-0.1-0.5-0.2-0.6c-0.1,0-0.2-0.1-0.4,0l-3.2,0.3
		c0,0.1,0,0.1,0,0.2c0,0.5,0.2,1,0.5,1.3C190,361,190.6,361.2,191.3,361.1z"/>
	<path d="M190.2,366.6c-0.2,0-0.3,0-0.5-0.1c-0.1-0.1-0.2-0.2-0.2-0.4c0-0.1,0-0.3,0.1-0.4c0.1-0.1,0.2-0.2,0.3-0.2
		c0.1,0,0.2,0,0.3,0.1c0.1,0.1,0.1,0.1,0.2,0.1c0.1,0,0.2-0.1,0.1-0.3c0-0.2-0.2-0.4-0.5-0.5c-0.3-0.1-1-0.2-1.8,0l-2.3,0.3
		c-0.1,0-0.1,0.1-0.2,0.1c0,0.1,0,0.3,0,0.6c0,0.1,0,0.1-0.1,0.1c-0.1,0-0.1,0-0.1-0.1c0-0.2,0-0.4-0.1-0.5c0-0.2-0.1-0.5-0.1-0.9
		c0-0.2-0.1-0.4-0.1-0.5c0-0.1,0-0.2-0.1-0.4c0-0.1,0-0.2,0-0.2c0,0,0.1,0,0.1,0.1l0,0.2c0,0.3,0.1,0.4,0.2,0.5c0,0,0.2,0,0.4,0
		l3.3-0.4c0.4-0.1,0.7-0.2,0.7-0.3s0.1-0.4,0-0.6c0-0.1,0-0.1,0.1-0.2c0.1,0,0.1,0,0.1,0.1l0,0.1c0,0.1,0,0.2,0,0.4
		c0,0.1,0,0.2,0,0.2c0,0.3,0.2,0.6,0.4,0.9l0.1,0.1l0,0.1c-0.2,0.1-0.4,0.1-0.6,0.1l-0.2,0c0.6,0.2,0.9,0.5,0.9,1
		c0,0.3,0,0.5-0.2,0.7C190.6,366.5,190.5,366.6,190.2,366.6z"/>
	<path d="M189.2,372.3c-0.8,0.1-1.4,0-2-0.4c-0.6-0.4-0.9-0.9-1.1-1.6c-0.1-0.7,0-1.4,0.5-1.9c0.4-0.6,1-0.9,1.8-1
		c0.8-0.1,1.5,0,2.1,0.4c0.6,0.4,1,0.9,1.1,1.6c0.1,0.7,0,1.3-0.5,1.9C190.6,371.8,190,372.2,189.2,372.3z M189,371.2
		c0.9-0.1,1.5-0.4,2-0.7c0.3-0.3,0.4-0.6,0.4-1.1c-0.1-0.4-0.4-0.8-0.9-0.9c-0.5-0.2-1.1-0.2-2-0.1c-0.8,0.1-1.4,0.4-1.8,0.7
		c-0.4,0.3-0.6,0.7-0.5,1.2c0.1,0.4,0.2,0.6,0.5,0.7C187.4,371.3,188.1,371.4,189,371.2z"/>
	<path d="M191.7,377.1c-0.4,0.1-0.6-0.1-0.6-0.4c-0.1-0.3,0.1-0.6,0.4-0.6c0.1,0,0.2,0,0.4,0c0.1,0,0.1,0,0.2,0
		c0.2,0,0.3-0.1,0.3-0.3c0.1-0.2,0.1-0.4,0-0.6c-0.1-0.5-0.4-0.8-0.8-1c-0.5-0.2-1.1-0.2-1.8,0c-0.8,0.2-1.4,0.4-1.8,0.8
		s-0.5,0.8-0.4,1.3c0.1,0.3,0.2,0.6,0.5,0.8c0.1,0.1,0.3,0.2,0.6,0.3c0,0,0.1,0.1,0.1,0.1c0,0.1,0,0.1-0.1,0.1
		c-0.1,0-0.3-0.1-0.7-0.3c-0.4-0.3-0.7-0.7-0.8-1.2c-0.1-0.7,0-1.3,0.4-1.9c0.4-0.6,1-0.9,1.7-1.1c0.8-0.2,1.5-0.1,2.2,0.3
		c0.6,0.4,1,0.9,1.2,1.6c0.1,0.5,0.1,0.9-0.1,1.3S192,377,191.7,377.1z"/>
	<path d="M193.9,382c-0.1,0-0.1-0.1-0.2-0.3c-0.1-0.2-0.1-0.3-0.1-0.3s-0.1-0.1-0.2-0.1l-0.2,0l-0.3,0c-0.4,0-1-0.1-1.7-0.1
		c-2.1-0.1-3.8-0.3-5-0.4c-0.7-0.1-1.1-0.4-1.2-0.8c0-0.2,0-0.4,0.1-0.5c0.1-0.1,0.2-0.2,0.4-0.3c0.1,0,0.3,0,0.4,0.1
		c0.1,0.1,0.2,0.2,0.2,0.3c0.1,0.2,0,0.4-0.1,0.5c-0.1,0.1-0.2,0.2-0.2,0.2c0,0.1,0.2,0.1,0.7,0.2c0.6,0.1,1.2,0.1,1.7,0.1
		c1.4-0.9,2.6-1.7,3.6-2.4c0.7-0.5,1.1-0.7,1.1-0.7c0-0.1,0-0.2,0-0.4s0-0.3,0-0.3c0.1,0,0.1,0,0.1,0.1c0,0.1,0,0.2,0.1,0.4
		c0,0.2,0.1,0.3,0.1,0.4c0,0,0,0.1,0.1,0.2c0,0.2,0.1,0.4,0.2,0.7l0.2,0.6c0,0.1,0,0.1-0.1,0.2c-0.1,0-0.1-0.1-0.2-0.4
		c-0.1-0.2-0.1-0.4-0.2-0.3c-0.1,0-0.3,0.2-0.7,0.4c-0.2,0.1-0.3,0.2-0.5,0.3l-0.5,0.3c-0.2,0.1-0.5,0.3-1.1,0.7
		c-0.2,0.1-0.4,0.3-0.6,0.4c2.5,0.2,3.8,0.3,4,0.2c0.1,0,0.1-0.1,0.1-0.1c0-0.1,0-0.2-0.1-0.5c0-0.1,0-0.1,0.1-0.1
		c0.1,0,0.1,0,0.1,0.1c0,0,0,0.1,0,0.1c0,0.3,0.1,0.5,0.1,0.7l0.1,0.3c0,0.1,0.1,0.2,0.1,0.3s0,0.1,0.1,0.2
		C194,381.9,194,382,193.9,382z"/>
	<path d="M192.9,387.6c-0.7,0.2-1.4,0.2-2.1-0.2s-1-0.8-1.2-1.5c-0.2-0.7-0.1-1.4,0.3-2c0.4-0.6,0.9-1,1.7-1.2
		c0.8-0.2,1.5-0.2,2.1,0.2s1.1,0.8,1.2,1.5c0.2,0.7,0.1,1.3-0.3,2S193.6,387.4,192.9,387.6z M192.6,386.5c0.8-0.2,1.5-0.6,1.9-0.9
		c0.3-0.3,0.4-0.7,0.2-1.1c-0.1-0.4-0.4-0.7-0.9-0.8c-0.5-0.1-1.2-0.1-1.9,0.2c-0.8,0.2-1.3,0.5-1.7,0.9c-0.4,0.4-0.5,0.8-0.4,1.3
		c0.1,0.4,0.3,0.6,0.6,0.7C191,386.8,191.7,386.8,192.6,386.5z"/>
	<path d="M192.4,394.4c-0.1,0-0.1,0-0.1-0.1l0-0.1c0-0.1-0.1-0.3-0.2-0.6c-0.2-0.7-0.4-1.2-0.4-1.3l0-0.1c0-0.1,0-0.2,0-0.2
		c0,0,0.1,0,0.1,0c0,0,0.1,0.2,0.2,0.4c0.1,0.1,0.1,0.2,0.1,0.2c0,0,0.2,0,0.4-0.1l2.2-0.7c0.8-0.3,1.3-0.5,1.4-0.6
		c0.3-0.2,0.4-0.6,0.3-0.9c-0.1-0.4-0.4-0.6-0.8-0.8c-0.1,0-0.3,0-0.4,0l-3.6,1.2c-0.1,0-0.1,0.1-0.1,0.3l0.1,0.4c0,0.1,0,0.1,0,0.1
		c-0.1,0-0.1,0-0.1-0.1l-0.1-0.2c-0.1-0.2-0.1-0.4-0.3-0.8c0-0.1-0.1-0.3-0.2-0.5c-0.1-0.3-0.1-0.4-0.2-0.5l0-0.1c0-0.1,0-0.2,0-0.2
		c0,0,0.1,0,0.2,0.2c0,0.1,0.1,0.2,0.1,0.3c0,0.1,0.1,0.2,0.1,0.2l0.2,0l2.5-0.8c0.9-0.3,1.3-0.4,1.4-0.5s0.1-0.2,0-0.3
		c0-0.1,0-0.1-0.1-0.3l0-0.1c0-0.2,0-0.2,0-0.3c0.1,0,0.1,0,0.2,0.2c0.1,0.2,0.2,0.5,0.4,0.7c0.2,0.2,0.3,0.4,0.4,0.5
		c0.1,0,0.1,0.1,0.1,0.1c0,0.1,0,0.1-0.2,0.2l-0.5,0.2c0.6,0.2,1.1,0.7,1.3,1.3c0.2,0.5,0.1,1-0.2,1.4c-0.2,0.2-0.6,0.4-1.2,0.6
		l-2.6,0.8c-0.2,0.1-0.4,0.1-0.4,0.2c0,0.1,0,0.2,0,0.4c0,0,0,0.1,0,0.1l0,0.1C192.4,394.3,192.4,394.4,192.4,394.4z"/>
</g>
</svg>
