<?xml version="1.0" encoding="utf-8"?>
<!-- Generator: Adobe Illustrator 28.0.0, SVG Export Plug-In . SVG Version: 6.00 Build 0)  -->
<svg version="1.1" id="Layer_1" xmlns="http://www.w3.org/2000/svg" xmlns:xlink="http://www.w3.org/1999/xlink" x="0px" y="0px"
	 viewBox="0 0 602.2 602.2" enable-background="new 0 0 602.2 602.2" xml:space="preserve">
<g>
	<g>
		<circle fill="none" stroke="#000000" stroke-width="0.5" stroke-miterlimit="10" cx="301.1" cy="346.2" r="113"/>
		<g>
			<path stroke="#000000" stroke-width="0.5" stroke-miterlimit="10" d="M301,455.2c0.1,0,0.5,0,0.5,0c0.1,0,0.7-0.1,0.8-0.2
				c0.1-0.2,0.3-0.2,0.5-0.2c0,0,0.2-0.1,0.2-0.1c0,0,0.1,0,0.1,0c0.1,0,0.3,0,0.3,0.2c0,0,0,0.1-0.1,0.1c0,0.1-0.2,0.3-0.2,0.3
				c-0.1,0.1-0.6,0.6-0.7,0.7c0,0.1-0.1,0.2-0.2,0.2c-0.1,0.1-0.3,0.6-0.4,0.7c0,0-0.1,0.3-0.1,0.3c0,0-0.1,0.2-0.1,0.3
				c0,0-0.1,0.1-0.1,0.1c0,0,0,0.1,0,0.1c0,0.1,0,0.2,0,0.3c0,0-0.1,0.2-0.1,0.3c0,0,0.1,0.2,0.1,0.3c0.1,0.1,0.3,0.1,0.4,0.1
				c0,0,0.1,0,0.1,0c0.5,0,1-0.3,1.5-0.4c0.1-0.1,0.7-0.3,0.8-0.4c0.3-0.1,0.4-0.3,0.6-0.5c0.1-0.2,0.2-0.4,0.4-0.4
				c0.2,0,0.2,0.1,0.2,0.3c0,0.3-0.3,0.6-0.4,0.9c0,0,0,0.1,0,0.1c0,0.1-0.1,0.6-0.1,0.7c0,0,0,0.1,0,0.1c0,0.1,0,0.3,0,0.3
				c0,0,0.1,0.5,0.1,0.6c0.1,0.4,0.2,0.9,0.5,1.3c0,0.1,0,0.1-0.1,0.1c-0.1,0-0.1-0.1-0.3-0.1c-0.1,0-0.3-0.2-0.3-0.2
				c0,0-0.2-0.2-0.3-0.3c0,0-0.1-0.2-0.1-0.2c0,0-0.2-0.1-0.3-0.2c-0.2-0.1-0.4-0.3-0.6-0.4c0,0-0.2-0.2-0.2-0.2c0,0-0.2,0-0.2,0
				c-0.2,0-0.3-0.1-0.5-0.2c0,0-0.3,0-0.3,0c0,0-0.1,0-0.1,0c0,0,0,0,0,0c0,0,0,0,0,0c0,0-0.1,0-0.1,0s-0.1,0-0.1,0c0,0,0,0,0,0
				c-0.1,0-0.3,0.1-0.3,0.2v0.7c0.1,0.2,0,0.3,0.1,0.5c0,0,0.1,0.2,0.1,0.2c0,0,0,0.2,0.1,0.2c0,0.1,0,0.2,0,0.2
				c0,0,0.1,0.1,0.1,0.1c0.1,0.1,0.1,0.2,0.1,0.4c0.1,0.2,0.2,0.3,0.3,0.5c0,0,0,0.2,0,0.2c0,0,0.2,0.2,0.2,0.3
				c0.1,0.1,0.5,0.5,0.6,0.6c0,0,0,0.1,0,0.1c0,0.2-0.1,0.3-0.3,0.3c-0.4,0-0.6-0.3-1-0.4c-0.4-0.1-0.9-0.2-1.3-0.2
				c-0.2,0-0.5,0-0.7,0.1c-0.4,0.2-0.7,0.4-1.1,0.4c-0.1,0-0.3,0-0.3-0.2c0,0,0,0,0,0c0,0,0.1-0.2,0.1-0.3c0.1-0.2,0.3-0.2,0.5-0.3
				c0.4-0.2,0.6-0.5,0.9-0.8c0,0,0.1-0.1,0.1-0.1c0.2-0.4,0.3-0.7,0.4-1.1c0,0,0-0.1,0-0.2c0-0.1,0-0.2,0-0.2c0,0,0-0.1,0-0.1
				c0-0.1,0-0.3,0-0.3c0,0,0-0.3,0-0.3c0,0,0,0,0-0.1c0-0.2-0.1-0.5-0.4-0.5c0,0-0.1,0-0.1,0.1c-0.1,0-0.4,0.1-0.4,0.1
				c0,0-0.1,0-0.1,0c-0.1,0-0.3,0.1-0.3,0.1s0,0,0,0c-0.1,0-0.1,0-0.1,0c0,0-0.1,0-0.1,0c-0.1,0.1-0.2,0.1-0.3,0.1
				c0,0-0.1,0.1-0.1,0.1c-0.1,0-0.3,0.2-0.3,0.2c0,0-0.3,0-0.3,0c0,0-0.2,0.2-0.2,0.2c0,0-0.2,0.1-0.2,0.1c-0.1,0.1-0.5,0.3-0.5,0.4
				c0,0-0.1,0.1-0.1,0.1c-0.1,0.1-0.2,0.1-0.3,0.2c-0.1,0.1-0.1,0.1-0.3,0.1c-0.1,0-0.1-0.1-0.1-0.2c0,0,0,0,0-0.1
				c0-0.1,0-0.2,0-0.3c0.1-0.1,0.4-0.7,0.4-0.8c0.1-0.4,0.1-0.8,0.1-1.1c0,0,0-0.2,0-0.2c0,0,0-0.1,0-0.1c0-0.1-0.1-0.4-0.1-0.5
				c0-0.2-0.1-0.2-0.1-0.4c0-0.1,0-0.1-0.1-0.2c0,0-0.2-0.2-0.2-0.5c0-0.1,0-0.2,0.1-0.2c0.2,0,0.3,0.3,0.4,0.4c0,0,0.3,0.2,0.3,0.2
				c0,0,0.3,0.3,0.3,0.3c0,0,0.5,0.2,0.7,0.3c0,0,0.2,0.1,0.2,0.1c0,0,0.2,0.1,0.2,0.1c0,0,0.1,0,0.1,0c0.1,0,0.5,0.1,0.6,0.1
				c0,0,0.2,0.1,0.2,0.1c0,0,0.2,0,0.2,0c0,0,0.1,0,0.1,0c0,0,0,0,0,0c0,0,0,0,0,0c0.2,0,0.5,0,0.7-0.2c0,0,0,0,0,0c0,0,0,0,0,0
				c0,0,0-0.1,0-0.1c0,0,0-0.2,0-0.2c0,0,0-0.1,0-0.1v0c0,0,0,0,0,0c0,0,0-0.1,0-0.1c0,0-0.1-0.2-0.1-0.2c0-0.1-0.1-0.4-0.1-0.4
				c0-0.2,0.1-0.4-0.2-0.5c0-0.1-0.2-0.4-0.3-0.4c0,0-0.1-0.1-0.1-0.1c0,0,0-0.1,0-0.1c0,0,0-0.2,0-0.2c0,0-0.1-0.1-0.1-0.1
				c0,0-0.1-0.2-0.1-0.2c-0.1-0.1-0.7-0.6-0.8-0.7c-0.1-0.1-0.1-0.2-0.1-0.3c0-0.1,0.1-0.2,0.1-0.2h0.4c0,0,0,0,0,0
				c0.2,0.1,0.4,0.3,0.7,0.4c0,0,0.1,0,0.1,0c0,0,0.1,0,0.1,0c0,0,0.1,0.1,0.1,0.1c0,0,0.2,0,0.2,0c0,0,0.1,0,0.1,0
				C300.6,455.2,300.9,455.2,301,455.2z"/>
		</g>
	</g>
	<circle fill="none" stroke="#000000" stroke-width="0.5" stroke-miterlimit="10" cx="301.1" cy="301.1" r="190.4"/>
</g>
</svg>
