<?xml version="1.0" encoding="utf-8"?>
<!-- Generator: Adobe Illustrator 28.0.0, SVG Export Plug-In . SVG Version: 6.00 Build 0)  -->
<svg version="1.1" id="Layer_1" xmlns="http://www.w3.org/2000/svg" xmlns:xlink="http://www.w3.org/1999/xlink" x="0px" y="0px"
	 viewBox="0 0 602.2 602.2" style="enable-background:new 0 0 602.2 602.2;" xml:space="preserve">
<style type="text/css">
	.st0{fill:none;stroke:#000000;stroke-width:0.5;stroke-miterlimit:10;}
	.st1{stroke:#000000;stroke-width:0.5;stroke-miterlimit:10;}
</style>
<circle class="st0" cx="301.1" cy="321.6" r="126.3"/>
<g>
	<path d="M371.5,202.6c-0.3,0.6-0.9,0.9-1.8,0.9c-0.4,0-0.8-0.1-1.2-0.2c0.3,0.3,0.5,0.5,0.6,0.8c0.1,0.3,0.1,0.7-0.1,1
		c-0.2,0.3-0.4,0.6-0.8,0.8s-0.7,0.3-1.2,0.3c-0.5,0-1.3-0.3-2.4-0.9c0,0-0.1,0-0.2-0.1c-0.1-0.1-0.2-0.1-0.4-0.2l-0.8-0.4
		c-0.3-0.2-0.5-0.3-0.6-0.3l-0.1,0c-0.1,0-0.1-0.1-0.1-0.1c0-0.1,0.1-0.1,0.2,0l0.4,0.3c0.2,0.1,0.4,0.2,0.4,0.2c0,0,0.1,0,0.2-0.1
		c0,0,0.1-0.1,0.2-0.1c0.1-0.1,0.3-0.2,0.6-0.5l3.6-3c0.4-0.4,0.7-0.6,0.7-0.7c0.1-0.1-0.1-0.3-0.6-0.5c-0.1,0-0.1-0.1-0.1-0.1
		c0,0,0.1,0,0.2,0l0.4,0.2l1.6,0.9c0.6,0.3,0.9,0.6,1,0.9C371.7,201.8,371.7,202.2,371.5,202.6z M368.1,204.5
		c0.4-0.7,0.2-1.2-0.5-1.6c-0.2-0.1-0.3-0.2-0.5-0.2l-2.3,2c-0.2,0.1-0.3,0.2-0.3,0.3c0,0.1,0,0.1,0.1,0.2c0.6,0.3,1.2,0.5,1.6,0.5
		C367.1,205.6,367.7,205.3,368.1,204.5z M370.7,201.9c0.3-0.5,0.1-0.9-0.5-1.3c-0.1-0.1-0.2-0.1-0.3-0.2c-0.1,0.1-0.2,0.2-0.4,0.3
		l-2.1,1.8c0.1,0.1,0.2,0.1,0.3,0.2c0.7,0.4,1.4,0.5,1.9,0.2C370.1,202.8,370.5,202.5,370.7,201.9z"/>
	<path d="M374.8,207c-0.2,0.3-0.5,0.5-1,0.5c-0.5,0-0.9-0.2-1.4-0.5c-0.2-0.1-0.4-0.2-0.6-0.4c-0.5,0.3-0.8,0.7-1.1,1
		c-0.3,0.5-0.2,0.9,0.2,1.2c0.3,0.2,0.8,0.2,1.3,0.1c0.1,0,0.2,0,0.2,0c0,0,0,0,0,0.1c-0.1,0.1-0.3,0.2-0.7,0.2
		c-0.4,0-0.8,0-1.2-0.2c-0.4-0.2-0.6-0.5-0.7-0.9s-0.1-0.7,0.1-1c0.4-0.6,1.1-1,2.2-1.2c0.9-0.2,1.6-0.1,2.1,0.2
		C374.9,206.2,375,206.6,374.8,207z M374.3,206.5c0.1-0.2,0.1-0.3-0.1-0.4c-0.2-0.1-0.4-0.2-0.7-0.1c-0.5,0.1-1,0.3-1.6,0.6
		c0.1,0,0.1,0.1,0.2,0.1c0.3,0.2,0.7,0.3,1.1,0.3C373.8,206.9,374.1,206.8,374.3,206.5z"/>
	<path d="M380.5,206.7c0,0,0,0-0.1,0.1c0,0-0.1,0.1-0.2,0.1l-4.9,3.4c-0.4,0.2-0.6,0.4-0.6,0.5c-0.1,0.2,0,0.3,0.2,0.4
		c0.2,0.1,0.5,0.1,0.8,0c0.1,0,0.2-0.1,0.3,0c0,0,0,0.1,0,0.1c0,0.1-0.2,0.1-0.5,0.2c-0.3,0.1-0.7,0-1-0.3c-0.5-0.3-0.6-0.6-0.4-1
		c0.1-0.1,0.3-0.3,0.7-0.5l4.9-3.4c0,0,0.1,0,0.1,0c0-0.1,0-0.1-0.1-0.2c-0.2-0.2-0.4-0.3-0.3-0.3c0,0,0.1,0,0.1,0
		c0,0,0.1,0.1,0.2,0.2c0.1,0.1,0.2,0.1,0.2,0.2c0.2,0.2,0.4,0.3,0.5,0.3c0.1,0,0.1,0.1,0.1,0.1C380.6,206.6,380.6,206.6,380.5,206.7
		z"/>
	<path d="M383.7,208.9c0,0,0,0-0.1,0.1c0,0-0.1,0.1-0.2,0.1l-5,3.2c-0.4,0.2-0.6,0.4-0.7,0.5c-0.1,0.1-0.1,0.3,0.1,0.4
		c0.2,0.1,0.5,0.2,0.8,0.1c0.2,0,0.2-0.1,0.3,0c0,0,0,0.1,0,0.1c0,0.1-0.2,0.1-0.5,0.2c-0.3,0-0.7-0.1-1-0.3c-0.4-0.3-0.6-0.6-0.3-1
		c0.1-0.1,0.3-0.3,0.7-0.5l5-3.2c0,0,0.1,0,0.1,0c0,0,0-0.1-0.1-0.2c-0.2-0.2-0.3-0.3-0.3-0.3c0,0,0.1,0,0.1,0c0,0,0.1,0.1,0.2,0.2
		c0.1,0.1,0.2,0.1,0.2,0.2c0.2,0.2,0.4,0.3,0.5,0.3c0.1,0,0.1,0.1,0.1,0.1C383.7,208.8,383.7,208.9,383.7,208.9z"/>
	<path d="M386.3,214.3c0,0-0.1,0.1-0.2,0.1l-2.9,1.6c-0.3,0.2-0.5,0.3-0.5,0.4c-0.1,0.1-0.1,0.3,0.1,0.4c0.2,0.2,0.5,0.2,0.9,0
		c0.1,0,0.1,0,0.2,0c0,0,0,0,0,0.1c0,0.1-0.2,0.1-0.4,0.1c-0.4,0.1-0.8,0-1.1-0.3c-0.2-0.1-0.3-0.3-0.3-0.4c0-0.2,0-0.3,0.1-0.4
		c0.1-0.1,0.1-0.2,0.3-0.2c-0.7,0.2-1.3,0.2-1.7-0.1c-0.3-0.2-0.4-0.5-0.5-0.8c0-0.3,0-0.6,0.3-0.9c0.2-0.3,0.6-0.6,1.1-0.8
		c0.5-0.2,1-0.3,1.6-0.4c0.8-0.1,1.3,0.1,1.7,0.3c0.4,0.3,0.5,0.7,0.2,1.1l0.5-0.3c0.1-0.1,0.2-0.1,0.2,0c0,0,0,0,0.1,0.1
		s0.1,0.1,0.1,0.1c0.1,0.1,0.2,0.1,0.3,0.2C386.3,214.2,386.3,214.2,386.3,214.3C386.3,214.3,386.3,214.3,386.3,214.3z M384.8,214.2
		c0.1-0.2,0.2-0.3,0.2-0.5s-0.1-0.3-0.3-0.4c-0.3-0.2-0.6-0.2-1.1-0.1c-0.5,0.1-1.1,0.3-1.5,0.6c-0.5,0.3-0.8,0.5-1,0.8
		c-0.3,0.4-0.3,0.7,0,0.9c0.2,0.1,0.4,0.2,0.8,0.1c0.3,0,0.7-0.1,1-0.3l1.6-0.9C384.7,214.4,384.8,214.3,384.8,214.2z"/>
	<path d="M389.9,217.3c-0.1,0.1-0.2,0-0.4-0.1l-0.3-0.2l-0.1-0.1l-3,1.5c-0.3,0.2-0.5,0.3-0.6,0.3c-0.1,0.1-0.1,0.2,0.1,0.4
		c0.2,0.2,0.5,0.2,0.9,0.1c0.1,0,0.1,0,0.2,0c0,0,0,0.1,0,0.1c-0.1,0.1-0.2,0.1-0.5,0.1c-0.3,0-0.6-0.1-0.9-0.3
		c-0.2-0.2-0.3-0.3-0.3-0.5c0-0.2,0-0.4,0.1-0.5c0.1-0.1,0.3-0.2,0.6-0.4l2.8-1.3l-0.3-0.3c-0.1-0.1-0.1-0.1-0.1-0.2
		c0.1-0.1,0.1-0.1,0.2,0l0.1,0.1c0,0,0.1,0,0.1,0.1c0.1,0.1,0.1,0.1,0.2,0.2l0.4-0.2c0.1-0.1,0.2-0.1,0.2-0.1c0,0,0.1,0.1,0.1,0.1
		s0.1,0.1,0.1,0.1c0.1,0,0.2,0.1,0.3,0.1c0,0,0.1,0,0.1,0c0,0,0,0,0,0.1l-0.2,0.1l-0.5,0.2l0.2,0.2l0.3,0.2c0,0,0.1,0,0.1,0.1
		c0,0,0.1,0,0.1,0C389.9,217.2,389.9,217.3,389.9,217.3z"/>
	<path d="M393.1,220.6c-0.1,0.1-0.2,0.2-0.3,0.2c-0.1,0-0.2,0-0.3-0.1c-0.1-0.1-0.1-0.1,0-0.2l0.1-0.1c0,0,0.1,0,0.1-0.1
		c0.1-0.1,0.1-0.2,0-0.3c-0.1-0.1-0.5-0.2-1-0.1s-1.1,0.2-1.8,0.5l-1.6,0.7c-0.2,0.1-0.2,0.1-0.3,0.1c-0.1-0.1-0.2-0.2-0.2-0.2
		c-0.1-0.1-0.2-0.1-0.2-0.2l0,0c0,0-0.1-0.1,0-0.1c0,0,0,0,0,0l0.1,0l3.8-1.8c0,0,0-0.1,0-0.1c0,0,0,0,0,0c0,0-0.1,0-0.1-0.1
		l-0.1-0.1c-0.1-0.1-0.1-0.1-0.1-0.2c0,0,0.2,0.1,0.4,0.3c0.3,0.2,0.5,0.3,0.6,0.4c0,0,0.1,0,0.1,0c0,0,0,0.1,0,0.1
		c0,0-0.1,0.1-0.3,0.2l-0.9,0.4c1-0.2,1.7-0.2,2.1,0.1C393.3,220.2,393.3,220.4,393.1,220.6z"/>
	<path d="M395.8,222.5c0,0-0.1,0-0.1,0.1c-0.1,0-0.3,0.1-0.5,0.2l-2.6,1.1c-0.4,0.2-0.6,0.3-0.6,0.3c-0.1,0.1-0.1,0.3,0,0.4
		c0.1,0.1,0.2,0.2,0.4,0.2s0.3,0.1,0.5,0c0.1,0,0.2,0,0.2,0c0,0,0,0.1,0,0.1c-0.1,0.1-0.2,0.1-0.4,0.1c-0.4,0-0.7-0.1-0.9-0.4
		c-0.2-0.2-0.3-0.3-0.3-0.5c0-0.2,0-0.4,0.1-0.5c0.1-0.1,0.4-0.3,0.7-0.4l2.3-1c0.1-0.1,0.2-0.1,0.3-0.1c0,0,0.1,0,0.1,0
		c0,0,0-0.2-0.2-0.4c0,0,0-0.1,0-0.1c0,0,0.1,0,0.1,0c0,0,0,0,0.1,0.1c0.1,0.1,0.2,0.2,0.3,0.3c0.2,0.2,0.4,0.3,0.5,0.4
		c0.1,0,0.1,0,0.1,0.1C395.8,222.5,395.8,222.5,395.8,222.5z M397.6,221.7c-0.2,0.2-0.4,0.2-0.6,0c-0.1-0.1-0.1-0.2-0.2-0.3
		c0-0.1,0-0.2,0.1-0.3c0.2-0.2,0.4-0.2,0.6,0C397.8,221.3,397.8,221.4,397.6,221.7z"/>
	<path d="M399,226.7c-0.2,0.2-0.4,0.3-0.6,0.1c-0.1-0.1-0.1-0.1-0.1-0.3c0-0.1,0-0.2,0.1-0.2c0.1-0.1,0.2-0.1,0.4,0l0,0.1
		c0,0,0,0.1,0.1,0.1c0,0,0.1,0,0.1,0c0.1-0.1,0.1-0.2,0.1-0.3c0-0.2-0.1-0.3-0.2-0.4c-0.3-0.3-0.9-0.4-1.8-0.2c-0.9,0.2-1.5,0.5-2,1
		c-0.4,0.4-0.4,0.8-0.1,1.1c0.3,0.3,0.7,0.4,1.3,0.3c0.1,0,0.2,0,0.2,0c0,0,0,0,0,0.1c-0.1,0.1-0.2,0.1-0.5,0.1
		c-0.5,0-1-0.2-1.3-0.5c-0.3-0.3-0.5-0.6-0.5-1c0-0.4,0.1-0.7,0.4-1c0.5-0.5,1.3-0.7,2.3-0.7c0.9,0,1.5,0.2,2,0.7
		c0.2,0.2,0.3,0.4,0.3,0.6S399.2,226.5,399,226.7z"/>
	<path d="M402.5,230.4c-0.3,0.2-0.6,0.3-1,0.2c-0.4-0.1-0.9-0.4-1.3-0.8c-0.1-0.2-0.3-0.3-0.5-0.5c-0.5,0.2-1,0.4-1.3,0.7
		c-0.4,0.4-0.5,0.8-0.1,1.2c0.3,0.3,0.7,0.4,1.3,0.4c0.1,0,0.2,0,0.2,0c0,0,0,0,0,0.1c-0.1,0.1-0.4,0.1-0.7,0
		c-0.4-0.1-0.8-0.3-1-0.6c-0.3-0.3-0.4-0.7-0.4-1c0-0.4,0.1-0.7,0.4-1c0.5-0.5,1.4-0.7,2.4-0.6c0.9,0.1,1.6,0.4,2,0.8
		C402.8,229.7,402.9,230.1,402.5,230.4z M402.2,229.7c0.2-0.1,0.2-0.3,0-0.4c-0.1-0.2-0.3-0.3-0.6-0.3c-0.5-0.1-1,0-1.7,0.1
		c0,0.1,0.1,0.1,0.2,0.2c0.3,0.3,0.6,0.5,1,0.6C401.5,230,401.9,230,402.2,229.7z"/>
</g>
<g>
	<g>
		<path class="st1" d="M311.4,443.5c0.1,0,0.5,0,0.5,0c0.1,0,0.7-0.1,0.8-0.2c0.1-0.2,0.3-0.2,0.5-0.2l0.2-0.1h0.1
			c0.1,0,0.3,0,0.3,0.2c0,0,0,0.1-0.1,0.1c0,0.1-0.2,0.3-0.2,0.3c-0.1,0.1-0.6,0.6-0.7,0.7c0,0.1-0.1,0.2-0.2,0.2
			c-0.1,0.1-0.3,0.6-0.4,0.7l-0.1,0.3c0,0-0.1,0.2-0.1,0.3l-0.1,0.1v0.1c0,0.1,0,0.2,0,0.3c0,0-0.1,0.2-0.1,0.3c0,0,0.1,0.2,0.1,0.3
			c0.1,0.1,0.3,0.1,0.4,0.1h0.1c0.5,0,1-0.3,1.5-0.4c0.1-0.1,0.7-0.3,0.8-0.4c0.3-0.1,0.4-0.3,0.6-0.5c0.1-0.2,0.2-0.4,0.4-0.4
			c0.2,0,0.2,0.1,0.2,0.3c0,0.3-0.3,0.6-0.4,0.9v0.1c0,0.1-0.1,0.6-0.1,0.7v0.1c0,0.1,0,0.3,0,0.3s0.1,0.5,0.1,0.6
			c0.1,0.4,0.2,0.9,0.5,1.3c0,0.1,0,0.1-0.1,0.1s-0.1-0.1-0.3-0.1c-0.1,0-0.3-0.2-0.3-0.2s-0.2-0.2-0.3-0.3l-0.1-0.2
			c0,0-0.2-0.1-0.3-0.2c-0.2-0.1-0.4-0.3-0.6-0.4l-0.2-0.2h-0.2c-0.2,0-0.3-0.1-0.5-0.2h-0.3h-0.1l0,0l0,0h-0.1h-0.1l0,0
			c-0.1,0-0.3,0.1-0.3,0.2v0.7c0.1,0.2,0,0.3,0.1,0.5l0.1,0.2c0,0,0,0.2,0.1,0.2c0,0.1,0,0.2,0,0.2l0.1,0.1c0.1,0.1,0.1,0.2,0.1,0.4
			c0.1,0.2,0.2,0.3,0.3,0.5v0.2c0,0,0.2,0.2,0.2,0.3c0.1,0.1,0.5,0.5,0.6,0.6v0.1c0,0.2-0.1,0.3-0.3,0.3c-0.4,0-0.6-0.3-1-0.4
			s-0.9-0.2-1.3-0.2c-0.2,0-0.5,0-0.7,0.1c-0.4,0.2-0.7,0.4-1.1,0.4c-0.1,0-0.3,0-0.3-0.2l0,0c0,0,0.1-0.2,0.1-0.3
			c0.1-0.2,0.3-0.2,0.5-0.3c0.4-0.2,0.6-0.5,0.9-0.8l0.1-0.1c0.2-0.4,0.3-0.7,0.4-1.1c0,0,0-0.1,0-0.2s0-0.2,0-0.2V449
			c0-0.1,0-0.3,0-0.3v-0.3c0,0,0,0,0-0.1c0-0.2-0.1-0.5-0.4-0.5c0,0-0.1,0-0.1,0.1c-0.1,0-0.4,0.1-0.4,0.1h-0.1
			c-0.1,0-0.3,0.1-0.3,0.1l0,0c-0.1,0-0.1,0-0.1,0h-0.1c-0.1,0.1-0.2,0.1-0.3,0.1l-0.1,0.1c-0.1,0-0.3,0.2-0.3,0.2h-0.3l-0.2,0.2
			l-0.2,0.1c-0.1,0.1-0.5,0.3-0.5,0.4l-0.1,0.1c-0.1,0.1-0.2,0.1-0.3,0.2c-0.1,0.1-0.1,0.1-0.3,0.1c-0.1,0-0.1-0.1-0.1-0.2
			c0,0,0,0,0-0.1s0-0.2,0-0.3c0.1-0.1,0.4-0.7,0.4-0.8c0.1-0.4,0.1-0.8,0.1-1.1v-0.2v-0.1c0-0.1-0.1-0.4-0.1-0.5
			c0-0.2-0.1-0.2-0.1-0.4c0-0.1,0-0.1-0.1-0.2c0,0-0.2-0.2-0.2-0.5c0-0.1,0-0.2,0.1-0.2c0.2,0,0.3,0.3,0.4,0.4l0.3,0.2l0.3,0.3
			c0,0,0.5,0.2,0.7,0.3l0.2,0.1l0.2,0.1h0.1c0.1,0,0.5,0.1,0.6,0.1l0.2,0.1h0.2h0.1l0,0l0,0c0.2,0,0.5,0,0.7-0.2l0,0l0,0v-0.1v-0.2
			V446l0,0l0,0v-0.1l-0.1-0.2c0-0.1-0.1-0.4-0.1-0.4c0-0.2,0.1-0.4-0.2-0.5c0-0.1-0.2-0.4-0.3-0.4l-0.1-0.1v-0.1V444l-0.1-0.1
			l-0.1-0.2c-0.1-0.1-0.7-0.6-0.8-0.7c-0.1-0.1-0.1-0.2-0.1-0.3c0-0.1,0.1-0.2,0.1-0.2h0.4l0,0c0.2,0.1,0.4,0.3,0.7,0.4h0.1h0.1
			l0.1,0.1h0.2h0.1C311,443.5,311.3,443.5,311.4,443.5z"/>
	</g>
	<g>
		<path class="st1" d="M290.6,443.5c0.1,0,0.5,0,0.5,0c0.1,0,0.7-0.1,0.8-0.2c0.1-0.2,0.3-0.2,0.5-0.2l0.2-0.1h0.1
			c0.1,0,0.3,0,0.3,0.2c0,0,0,0.1-0.1,0.1c0,0.1-0.2,0.3-0.2,0.3c-0.1,0.1-0.6,0.6-0.7,0.7c0,0.1-0.1,0.2-0.2,0.2
			c-0.1,0.1-0.3,0.6-0.4,0.7l-0.1,0.3c0,0-0.1,0.2-0.1,0.3l-0.1,0.1v0.1c0,0.1,0,0.2,0,0.3c0,0-0.1,0.2-0.1,0.3c0,0,0.1,0.2,0.1,0.3
			c0.1,0.1,0.3,0.1,0.4,0.1h0.1c0.5,0,1-0.3,1.5-0.4c0.1-0.1,0.7-0.3,0.8-0.4c0.3-0.1,0.4-0.3,0.6-0.5c0.1-0.2,0.2-0.4,0.4-0.4
			c0.2,0,0.2,0.1,0.2,0.3c0,0.3-0.3,0.6-0.4,0.9v0.1c0,0.1-0.1,0.6-0.1,0.7v0.1c0,0.1,0,0.3,0,0.3s0.1,0.5,0.1,0.6
			c0.1,0.4,0.2,0.9,0.5,1.3c0,0.1,0,0.1-0.1,0.1s-0.1-0.1-0.3-0.1c-0.1,0-0.3-0.2-0.3-0.2s-0.2-0.2-0.3-0.3l-0.1-0.2
			c0,0-0.2-0.1-0.3-0.2c-0.2-0.1-0.4-0.3-0.6-0.4l-0.2-0.2h-0.2c-0.2,0-0.3-0.1-0.5-0.2H292h-0.1l0,0l0,0h-0.1h-0.1l0,0
			c-0.1,0-0.3,0.1-0.3,0.2v0.7c0.1,0.2,0,0.3,0.1,0.5l0.1,0.2c0,0,0,0.2,0.1,0.2c0,0.1,0,0.2,0,0.2l0.1,0.1c0.1,0.1,0.1,0.2,0.1,0.4
			c0.1,0.2,0.2,0.3,0.3,0.5v0.2c0,0,0.2,0.2,0.2,0.3c0.1,0.1,0.5,0.5,0.6,0.6v0.1c0,0.2-0.1,0.3-0.3,0.3c-0.4,0-0.6-0.3-1-0.4
			s-0.9-0.2-1.3-0.2c-0.2,0-0.5,0-0.7,0.1c-0.4,0.2-0.7,0.4-1.1,0.4c-0.1,0-0.3,0-0.3-0.2l0,0c0,0,0.1-0.2,0.1-0.3
			c0.1-0.2,0.3-0.2,0.5-0.3c0.4-0.2,0.6-0.5,0.9-0.8l0.1-0.1c0.2-0.4,0.3-0.7,0.4-1.1c0,0,0-0.1,0-0.2s0-0.2,0-0.2V449
			c0-0.1,0-0.3,0-0.3v-0.3c0,0,0,0,0-0.1c0-0.2-0.1-0.5-0.4-0.5c0,0-0.1,0-0.1,0.1c-0.1,0-0.4,0.1-0.4,0.1h-0.1
			c-0.1,0-0.3,0.1-0.3,0.1l0,0c-0.1,0-0.1,0-0.1,0h-0.1c-0.1,0.1-0.2,0.1-0.3,0.1l-0.1,0.1c-0.1,0-0.3,0.2-0.3,0.2h-0.3l-0.2,0.2
			l-0.2,0.1c-0.1,0.1-0.5,0.3-0.5,0.4l-0.1,0.1c-0.1,0.1-0.2,0.1-0.3,0.2c-0.1,0.1-0.1,0.1-0.3,0.1c-0.1,0-0.1-0.1-0.1-0.2
			c0,0,0,0,0-0.1s0-0.2,0-0.3c0.1-0.1,0.4-0.7,0.4-0.8c0.1-0.4,0.1-0.8,0.1-1.1v-0.2v-0.1c0-0.1-0.1-0.4-0.1-0.5
			c0-0.2-0.1-0.2-0.1-0.4c0-0.1,0-0.1-0.1-0.2c0,0-0.2-0.2-0.2-0.5c0-0.1,0-0.2,0.1-0.2c0.2,0,0.3,0.3,0.4,0.4l0.3,0.2l0.3,0.3
			c0,0,0.5,0.2,0.7,0.3l0.2,0.1l0.2,0.1h0.1c0.1,0,0.5,0.1,0.6,0.1l0.2,0.1h0.2h0.1l0,0l0,0c0.2,0,0.5,0,0.7-0.2l0,0l0,0v-0.1v-0.2
			V446l0,0l0,0v-0.1l-0.1-0.2c0-0.1-0.1-0.4-0.1-0.4c0-0.2,0.1-0.4-0.2-0.5c0-0.1-0.2-0.4-0.3-0.4l-0.1-0.1v-0.1V444l-0.1-0.1
			l-0.1-0.2c-0.1-0.1-0.7-0.6-0.8-0.7c-0.1-0.1-0.1-0.2-0.1-0.3c0-0.1,0.1-0.2,0.1-0.2h0.4l0,0c0.2,0.1,0.4,0.3,0.7,0.4h0.1h0.1
			l0.1,0.1h0.2h0.1C290.2,443.5,290.5,443.5,290.6,443.5z"/>
	</g>
</g>
<circle class="st0" cx="301.1" cy="301.1" r="190.4"/>
<g>
	<path d="M176.5,260.5c0.6,0.3,1,0.9,1,1.7c0,0.4,0,0.8-0.1,1.2c0.3-0.3,0.5-0.5,0.7-0.7c0.3-0.1,0.6-0.1,1,0
		c0.3,0.2,0.6,0.4,0.8,0.7c0.2,0.3,0.3,0.7,0.4,1.1c0,0.5-0.2,1.3-0.7,2.4c0,0,0,0.1-0.1,0.2c-0.1,0.1-0.1,0.2-0.2,0.4l-0.4,0.8
		c-0.2,0.4-0.3,0.6-0.3,0.6l0,0.1c0,0.1-0.1,0.1-0.1,0.1c-0.1,0-0.1-0.1,0-0.2l0.2-0.4c0.1-0.2,0.1-0.4,0.1-0.4c0-0.1,0-0.1-0.1-0.2
		c0,0-0.1-0.1-0.1-0.1c-0.1-0.1-0.2-0.3-0.6-0.6l-3.3-3.4c-0.4-0.4-0.6-0.6-0.7-0.7c-0.1,0-0.3,0.2-0.5,0.6c0,0.1-0.1,0.1-0.1,0.1
		c0,0,0-0.1,0-0.2l0.2-0.5l0.8-1.6c0.3-0.6,0.5-0.9,0.8-1.1C175.8,260.3,176.1,260.3,176.5,260.5z M178.7,263.7
		c-0.7-0.3-1.2-0.1-1.5,0.6c-0.1,0.2-0.1,0.3-0.2,0.5l2.1,2.2c0.2,0.2,0.3,0.2,0.3,0.3c0.1,0,0.2,0,0.2-0.1c0.3-0.6,0.4-1.2,0.4-1.6
		C179.9,264.6,179.5,264,178.7,263.7z M175.9,261.3c-0.5-0.2-1,0-1.2,0.6c-0.1,0.1-0.1,0.2-0.1,0.3c0.1,0.1,0.2,0.2,0.4,0.4l1.9,1.9
		c0.1-0.1,0.1-0.2,0.2-0.3c0.3-0.7,0.4-1.4,0.1-1.9C176.8,261.8,176.5,261.5,175.9,261.3z"/>
	<path d="M180.5,255.8c0,0,0.1,0.1,0.1,0.2l2,2.6c0.2,0.2,0.4,0.4,0.5,0.5c0.2,0.1,0.3,0,0.3-0.1c0.1-0.2,0.1-0.5-0.1-0.9
		c0-0.1-0.1-0.1,0-0.2c0,0,0,0,0.1,0c0.1,0,0.1,0.2,0.2,0.4c0.1,0.4,0.1,0.8-0.1,1.1c-0.1,0.2-0.2,0.3-0.4,0.4
		c-0.1,0.1-0.3,0.1-0.4,0c-0.1,0-0.2-0.1-0.3-0.2c0.3,0.7,0.4,1.2,0.1,1.7c-0.2,0.3-0.4,0.5-0.7,0.6c-0.3,0.1-0.6,0.1-0.9-0.1
		c-0.3-0.2-0.6-0.5-0.9-0.9s-0.5-0.9-0.6-1.5c-0.2-0.7-0.2-1.3,0.1-1.8c0.2-0.4,0.6-0.6,1-0.4l-0.4-0.5c-0.1-0.1-0.1-0.2-0.1-0.2
		c0,0,0,0,0.1-0.1c0-0.1,0.1-0.1,0.1-0.1c0.1-0.1,0.1-0.2,0.1-0.3C180.4,255.9,180.4,255.8,180.5,255.8
		C180.5,255.8,180.5,255.8,180.5,255.8z M180.7,257.3c-0.2-0.1-0.4-0.1-0.5-0.1c-0.2,0.1-0.3,0.2-0.4,0.3c-0.2,0.3-0.1,0.7,0.1,1.1
		c0.2,0.5,0.5,1,0.9,1.4c0.3,0.4,0.7,0.7,1,0.9c0.4,0.2,0.7,0.1,0.9-0.2c0.1-0.2,0.1-0.4,0-0.8c-0.1-0.3-0.3-0.6-0.5-1l-1.1-1.5
		C180.9,257.4,180.8,257.3,180.7,257.3z"/>
	<path d="M180.6,250.2c0,0,0,0,0.1,0.1c0,0,0.1,0.1,0.2,0.2l3.6,4.7c0.3,0.3,0.5,0.6,0.6,0.6c0.2,0.1,0.3,0,0.4-0.2
		c0.1-0.2,0.1-0.5,0-0.8c-0.1-0.1-0.1-0.2-0.1-0.3c0,0,0.1,0,0.1,0c0.1,0,0.1,0.2,0.2,0.5c0.1,0.3,0,0.7-0.2,1
		c-0.3,0.5-0.6,0.6-0.9,0.4c-0.1-0.1-0.3-0.3-0.6-0.6l-3.6-4.7c0,0,0-0.1,0-0.1c-0.1,0-0.1,0-0.2,0.1c-0.1,0.3-0.2,0.4-0.3,0.3
		c0,0,0-0.1,0-0.1s0.1-0.1,0.1-0.2c0.1-0.1,0.1-0.2,0.1-0.2c0.1-0.2,0.2-0.4,0.3-0.6c0-0.1,0.1-0.1,0.1-0.1
		C180.5,250.2,180.5,250.2,180.6,250.2z"/>
	<path d="M185.7,247.1c0,0,0.1,0.1,0.1,0.2l1.8,2.7c0.2,0.3,0.3,0.4,0.5,0.5c0.1,0.1,0.3,0.1,0.4-0.1c0.1-0.2,0.1-0.5,0-0.9
		c0-0.1,0-0.1,0-0.2c0,0,0,0,0.1,0c0.1,0,0.1,0.2,0.2,0.4c0.1,0.4,0.1,0.8-0.2,1.1c-0.1,0.2-0.2,0.3-0.4,0.3c-0.2,0.1-0.3,0-0.4,0
		c-0.1-0.1-0.2-0.1-0.3-0.2c0.3,0.7,0.3,1.3,0,1.7c-0.2,0.3-0.4,0.5-0.7,0.5c-0.3,0.1-0.6,0-0.9-0.2c-0.3-0.2-0.6-0.5-0.9-1
		c-0.2-0.5-0.4-1-0.5-1.5c-0.1-0.8-0.1-1.3,0.2-1.7c0.3-0.4,0.6-0.5,1.1-0.3l-0.3-0.5c-0.1-0.1-0.1-0.2-0.1-0.2c0,0,0,0,0.1-0.1
		s0.1-0.1,0.1-0.1c0.1-0.1,0.1-0.2,0.1-0.3C185.6,247.2,185.6,247.1,185.7,247.1C185.7,247.1,185.7,247.1,185.7,247.1z M185.8,248.6
		c-0.2-0.1-0.3-0.1-0.5-0.1c-0.2,0-0.3,0.1-0.4,0.3c-0.2,0.3-0.2,0.7,0,1.1c0.2,0.5,0.4,1,0.7,1.5c0.3,0.4,0.6,0.8,0.9,1
		c0.4,0.2,0.7,0.2,0.9-0.1c0.1-0.2,0.1-0.4,0.1-0.8c-0.1-0.3-0.2-0.7-0.4-1l-1-1.5C185.9,248.8,185.8,248.7,185.8,248.6z"/>
	<path d="M189.7,242.6c0.1,0.1,0.3,0.3,0.5,0.7l1,1.7c0.1,0.2,0.2,0.3,0.3,0.4c0.1,0.1,0.2,0.1,0.3-0.1c0.1-0.2,0.1-0.5,0.1-0.9
		c0,0,0-0.1,0-0.1c0,0,0,0,0.1,0c0.1,0,0.1,0.2,0.1,0.5c0,0.4-0.1,0.7-0.3,1c-0.1,0.2-0.3,0.3-0.4,0.3c-0.2,0.1-0.3,0-0.4,0
		c-0.1-0.1-0.2-0.2-0.4-0.5l-1-1.7c-0.2-0.4-0.4-0.7-0.6-0.7c-0.2-0.1-0.3-0.1-0.5,0.1c-0.2,0.3-0.2,0.7-0.1,1.3
		c0.1,0.4,0.3,0.9,0.7,1.5l1.1,1.8c0.1,0.1,0.1,0.1,0,0.2c0,0,0,0.1-0.1,0.2c0,0,0,0-0.1,0.1c0,0-0.1,0.1-0.2,0.2c0,0,0,0,0,0.1
		c0,0-0.1,0-0.1,0c0,0,0,0,0-0.1l-0.1-0.1l-2.1-3.3c0,0,0-0.1,0-0.1c0,0-0.1,0-0.2,0.2c-0.1,0.2-0.2,0.2-0.3,0.2c0,0,0-0.1,0-0.1
		c0,0,0.1-0.1,0.1-0.2c0.1-0.1,0.1-0.1,0.1-0.2c0.2-0.3,0.3-0.5,0.3-0.6c0,0,0-0.1,0-0.1c0,0,0.1,0,0.1,0c0,0,0,0,0,0l0.6,0.8
		c0-0.1,0-0.2-0.1-0.3c-0.2-0.7-0.1-1.2,0.2-1.6c0.2-0.2,0.3-0.4,0.6-0.4C189.3,242.5,189.5,242.5,189.7,242.6z"/>
	<path d="M193.1,238.1c0.3,0.2,0.3,0.4,0.1,0.6c-0.1,0.1-0.1,0.1-0.2,0.1c-0.1,0-0.2,0-0.3-0.1c-0.1-0.1-0.1-0.2,0-0.4l0.1-0.1
		c0,0,0.1,0,0.1-0.1c0,0,0-0.1,0-0.1c-0.1-0.1-0.2-0.1-0.3,0c-0.1,0.1-0.3,0.1-0.4,0.3c-0.3,0.4-0.3,1,0,1.8
		c0.3,0.8,0.7,1.4,1.2,1.8c0.4,0.3,0.8,0.3,1.1-0.1c0.2-0.3,0.3-0.7,0.2-1.3c0-0.1,0-0.2,0-0.2c0,0,0,0,0.1,0c0.1,0,0.1,0.2,0.1,0.4
		c0.1,0.5,0,1-0.3,1.4c-0.3,0.3-0.6,0.5-0.9,0.6c-0.4,0.1-0.7,0-1-0.3c-0.6-0.4-0.9-1.2-1-2.2c-0.1-0.9,0-1.5,0.4-2.1
		c0.1-0.2,0.3-0.3,0.5-0.4C192.7,237.9,192.9,237.9,193.1,238.1z"/>
	<path d="M196.2,234.1c0.3,0.2,0.4,0.6,0.3,1c-0.1,0.4-0.3,0.9-0.7,1.4c-0.1,0.2-0.3,0.3-0.5,0.5c0.2,0.5,0.5,0.9,0.9,1.2
		c0.5,0.4,0.9,0.4,1.2,0c0.3-0.3,0.3-0.8,0.3-1.3c0-0.1,0-0.2,0-0.2c0,0,0,0,0.1,0c0.1,0.1,0.2,0.3,0.1,0.7c0,0.4-0.2,0.8-0.4,1.1
		c-0.3,0.3-0.6,0.5-1,0.6c-0.4,0.1-0.7,0-1-0.3c-0.6-0.5-0.9-1.2-0.9-2.3c0-0.9,0.1-1.6,0.5-2.1
		C195.5,233.9,195.9,233.8,196.2,234.1z M195.6,234.6c-0.2-0.1-0.3-0.1-0.4,0c-0.1,0.2-0.2,0.4-0.2,0.6c0,0.5,0.1,1,0.4,1.6
		c0.1-0.1,0.1-0.1,0.2-0.2c0.2-0.3,0.4-0.6,0.4-1.1C196,235.1,195.9,234.8,195.6,234.6z"/>
	<path d="M201.7,228.2c0.1,0.1,0.1,0.2,0.1,0.3c0,0.1,0,0.2-0.1,0.3c-0.1,0.1-0.3,0.2-0.4,0c-0.1-0.1-0.1-0.2,0-0.3c0,0,0,0,0.1,0
		c0,0,0.1,0,0.1-0.1c0,0,0-0.1,0-0.1c-0.1-0.1-0.2-0.1-0.4-0.1s-0.3,0.1-0.4,0.2c-0.1,0.2-0.2,0.3-0.2,0.5c0,0.2,0.1,0.4,0.2,0.5
		c0.1,0.1,0.6,0.3,1.3,0.6c0.2,0.1,0.4,0.2,0.5,0.3c0.3,0.3,0.5,0.7,0.5,1.1c0,0.4-0.1,0.8-0.4,1.2c-0.3,0.3-0.6,0.5-0.9,0.5
		c-0.3,0-0.6,0-0.9-0.3c-0.1-0.1-0.2-0.3-0.2-0.4c0-0.2,0-0.3,0.2-0.4c0.1-0.1,0.2-0.1,0.3-0.1c0.1,0,0.2,0,0.3,0.1
		c0.1,0.1,0.2,0.3,0,0.4c-0.1,0.2-0.3,0.2-0.4,0.1c0,0-0.1-0.1-0.1-0.1c0,0,0-0.1,0-0.1c0,0-0.1,0-0.1,0c0,0,0,0.1,0,0.2
		c0,0.1,0.1,0.2,0.2,0.3c0.2,0.2,0.4,0.3,0.7,0.2c0.3,0,0.5-0.1,0.7-0.4c0.2-0.2,0.3-0.4,0.3-0.7c0-0.2-0.1-0.5-0.3-0.6
		c-0.1-0.1-0.4-0.3-0.8-0.4c-0.4-0.2-0.7-0.3-0.8-0.5c-0.3-0.3-0.5-0.6-0.5-1c0-0.4,0.1-0.7,0.3-1c0.2-0.2,0.4-0.3,0.6-0.3
		C201.3,228,201.5,228.1,201.7,228.2z"/>
	<path d="M205.3,224.5c0.3,0.3,0.3,0.6,0.2,1c-0.1,0.4-0.4,0.9-0.8,1.3c-0.2,0.2-0.3,0.3-0.5,0.5c0.2,0.5,0.4,1,0.7,1.3
		c0.4,0.4,0.8,0.4,1.2,0.1c0.3-0.3,0.4-0.7,0.4-1.3c0-0.1,0-0.2,0-0.2c0,0,0,0,0.1,0c0.1,0.1,0.1,0.4,0.1,0.7
		c-0.1,0.4-0.2,0.8-0.5,1.1c-0.3,0.3-0.7,0.5-1,0.5c-0.4,0-0.7-0.1-1-0.4c-0.5-0.5-0.7-1.3-0.7-2.4c0.1-0.9,0.3-1.6,0.7-2
		C204.6,224.2,205,224.2,205.3,224.5z M204.7,224.9c-0.1-0.1-0.3-0.1-0.4,0c-0.2,0.2-0.2,0.4-0.3,0.6c-0.1,0.5,0,1,0.2,1.7
		c0.1-0.1,0.1-0.1,0.2-0.2c0.3-0.3,0.4-0.6,0.5-1C205,225.5,204.9,225.1,204.7,224.9z"/>
	<path d="M209.3,220c0,0,0,0.1,0.1,0.2l1,3.1c0.1,0.3,0.2,0.5,0.3,0.6c0.1,0.1,0.2,0.1,0.4,0c0.2-0.2,0.3-0.5,0.2-0.9
		c0-0.1,0-0.1,0-0.2c0,0,0,0,0.1,0c0,0.1,0.1,0.2,0.1,0.4c0,0.4-0.2,0.8-0.5,1.1c-0.2,0.1-0.3,0.2-0.5,0.2c-0.2,0-0.3,0-0.4-0.2
		c-0.1-0.1-0.1-0.2-0.2-0.3c0.1,0.7-0.1,1.3-0.5,1.7c-0.3,0.2-0.5,0.3-0.9,0.3c-0.3,0-0.6-0.2-0.8-0.4c-0.3-0.3-0.4-0.7-0.6-1.2
		c-0.1-0.5-0.1-1-0.1-1.6c0.1-0.8,0.3-1.3,0.7-1.6c0.4-0.3,0.7-0.3,1.1,0l-0.2-0.6c0-0.1,0-0.2,0-0.2c0,0,0,0,0.1-0.1
		c0.1,0,0.1-0.1,0.1-0.1c0.1-0.1,0.2-0.2,0.2-0.3C209.2,220,209.2,220,209.3,220C209.3,219.9,209.3,219.9,209.3,220z M209,221.4
		c-0.1-0.2-0.3-0.2-0.5-0.2c-0.2,0-0.3,0-0.5,0.2c-0.2,0.2-0.4,0.6-0.3,1.1c0,0.6,0.1,1.1,0.3,1.6c0.2,0.5,0.4,0.9,0.6,1.2
		c0.3,0.3,0.6,0.4,0.9,0.1c0.2-0.1,0.3-0.4,0.3-0.7c0-0.3,0-0.7-0.1-1.1l-0.5-1.8C209.1,221.6,209,221.5,209,221.4z"/>
	<path d="M211.3,214.7c0,0,0,0.1,0.1,0.1c0,0.1,0,0.1,0.1,0.2l1.8,5.6c0.1,0.4,0.2,0.7,0.3,0.8c0.1,0.1,0.3,0.1,0.4,0
		c0.2-0.2,0.3-0.4,0.3-0.8c0-0.2,0-0.2,0-0.3c0,0,0.1,0,0.1,0c0.1,0.1,0.1,0.2,0,0.5c0,0.3-0.2,0.6-0.5,0.9c-0.4,0.4-0.8,0.4-1,0.1
		c-0.1-0.1-0.2-0.4-0.3-0.8l-1.8-5.6c0,0,0-0.1,0-0.1c0,0-0.1,0-0.2,0.1c-0.2,0.2-0.4,0.3-0.4,0.2c0,0,0-0.1,0-0.1
		c0,0,0.1-0.1,0.2-0.2c0.1-0.1,0.2-0.1,0.2-0.2c0.2-0.2,0.4-0.3,0.5-0.4c0.1-0.1,0.1-0.1,0.1-0.1
		C211.2,214.7,211.3,214.7,211.3,214.7z"/>
	<path d="M216.9,214.6c0.2,0.3,0.3,0.6,0.1,1.1c-0.2,0.4-0.5,0.8-0.9,1.2c-0.2,0.1-0.4,0.3-0.6,0.4c0.1,0.6,0.3,1,0.6,1.3
		c0.4,0.5,0.8,0.5,1.2,0.2c0.3-0.3,0.5-0.7,0.5-1.2c0-0.1,0-0.2,0-0.2c0,0,0,0,0.1,0c0.1,0.1,0.1,0.4,0,0.7c-0.1,0.4-0.3,0.8-0.6,1
		c-0.3,0.3-0.7,0.4-1.1,0.4s-0.7-0.2-0.9-0.5c-0.5-0.6-0.6-1.4-0.4-2.5c0.2-0.9,0.5-1.6,0.9-1.9
		C216.2,214.3,216.6,214.3,216.9,214.6z M216.2,214.9c-0.1-0.2-0.3-0.2-0.4-0.1c-0.2,0.1-0.3,0.3-0.3,0.6c-0.1,0.5-0.1,1,0,1.7
		c0.1,0,0.1-0.1,0.2-0.2c0.3-0.2,0.5-0.5,0.6-0.9C216.5,215.6,216.4,215.2,216.2,214.9z"/>
</g>
</svg>
