<?xml version="1.0" encoding="utf-8"?>
<!-- Generator: Adobe Illustrator 28.0.0, SVG Export Plug-In . SVG Version: 6.00 Build 0)  -->
<svg version="1.1" id="Layer_1" xmlns="http://www.w3.org/2000/svg" xmlns:xlink="http://www.w3.org/1999/xlink" x="0px" y="0px"
	 viewBox="0 0 602.2 602.2" style="enable-background:new 0 0 602.2 602.2;" xml:space="preserve">
<style type="text/css">
	.st0{fill:none;stroke:#000000;stroke-width:0.5;stroke-miterlimit:10;}
	.st1{stroke:#000000;stroke-width:0.5;stroke-miterlimit:10;}
</style>
<g>
	<g>
		<ellipse class="st0" cx="301.1" cy="291.7" rx="136.5" ry="167.5"/>
		<g>
			<g>
				<path class="st1" d="M301.1,451.6c-0.1,0-0.5,0-0.5,0c-0.1,0-0.7,0.1-0.8,0.2c-0.1,0.2-0.3,0.2-0.5,0.2l-0.2,0.1H299
					c-0.1,0-0.3,0-0.3-0.2c0,0,0-0.1,0.1-0.1c0-0.1,0.2-0.3,0.2-0.3c0.1-0.1,0.6-0.6,0.7-0.7c0-0.1,0.1-0.2,0.2-0.2
					c0.1-0.1,0.3-0.6,0.4-0.7l0.1-0.3c0,0,0.1-0.2,0.1-0.3l0.1-0.1v-0.1c0-0.1,0-0.2,0-0.3c0,0,0.1-0.2,0.1-0.3c0,0-0.1-0.2-0.1-0.3
					c-0.1-0.1-0.3-0.1-0.4-0.1h-0.1c-0.5,0-1,0.3-1.5,0.4c-0.1,0.1-0.7,0.3-0.8,0.4c-0.3,0.1-0.4,0.3-0.6,0.5
					c-0.1,0.2-0.2,0.4-0.4,0.4c-0.2,0-0.2-0.1-0.2-0.3c0-0.3,0.3-0.6,0.4-0.9v-0.1c0-0.1,0.1-0.6,0.1-0.7v-0.1c0-0.1,0-0.3,0-0.3
					s-0.1-0.5-0.1-0.6c-0.1-0.4-0.2-0.9-0.5-1.3c0-0.1,0-0.1,0.1-0.1s0.1,0.1,0.3,0.1c0.1,0,0.3,0.2,0.3,0.2s0.2,0.2,0.3,0.3
					l0.1,0.2c0,0,0.2,0.1,0.3,0.2c0.2,0.1,0.4,0.3,0.6,0.4l0.2,0.2h0.2c0.2,0,0.3,0.1,0.5,0.2h0.3h0.1l0,0l0,0h0.1h0.1l0,0
					c0.1,0,0.3-0.1,0.3-0.2v-0.7c-0.1-0.2,0-0.3-0.1-0.5l-0.1-0.2c0,0,0-0.2-0.1-0.2c0-0.1,0-0.2,0-0.2l-0.1-0.1
					c-0.1-0.1-0.1-0.2-0.1-0.4c-0.1-0.2-0.2-0.3-0.3-0.5V444c0,0-0.2-0.2-0.2-0.3c-0.1-0.1-0.5-0.5-0.6-0.6V443
					c0-0.2,0.1-0.3,0.3-0.3c0.4,0,0.6,0.3,1,0.4s0.9,0.2,1.3,0.2c0.2,0,0.5,0,0.7-0.1c0.4-0.2,0.7-0.4,1.1-0.4c0.1,0,0.3,0,0.3,0.2
					l0,0c0,0-0.1,0.2-0.1,0.3c-0.1,0.2-0.3,0.2-0.5,0.3c-0.4,0.2-0.6,0.5-0.9,0.8l-0.1,0.1c-0.2,0.4-0.3,0.7-0.4,1.1
					c0,0,0,0.1,0,0.2s0,0.2,0,0.2v0.1c0,0.1,0,0.3,0,0.3v0.3c0,0,0,0,0,0.1c0,0.2,0.1,0.5,0.4,0.5c0,0,0.1,0,0.1-0.1
					c0.1,0,0.4-0.1,0.4-0.1h0.1c0.1,0,0.3-0.1,0.3-0.1l0,0c0.1,0,0.1,0,0.1,0h0.1c0.1-0.1,0.2-0.1,0.3-0.1l0.1-0.1
					c0.1,0,0.3-0.2,0.3-0.2h0.3l0.2-0.2l0.2-0.1c0.1-0.1,0.5-0.3,0.5-0.4l0.1-0.1c0.1-0.1,0.2-0.1,0.3-0.2c0.1-0.1,0.1-0.1,0.3-0.1
					c0.1,0,0.1,0.1,0.1,0.2c0,0,0,0,0,0.1s0,0.2,0,0.3c-0.1,0.1-0.4,0.7-0.4,0.8c-0.1,0.4-0.1,0.8-0.1,1.1v0.2v0.1
					c0,0.1,0.1,0.4,0.1,0.5c0,0.2,0.1,0.2,0.1,0.4c0,0.1,0,0.1,0.1,0.2c0,0,0.2,0.2,0.2,0.5c0,0.1,0,0.2-0.1,0.2
					c-0.2,0-0.3-0.3-0.4-0.4l-0.3-0.2l-0.3-0.3c0,0-0.5-0.2-0.7-0.3l-0.2-0.1l-0.2-0.1h-0.1c-0.1,0-0.5-0.1-0.6-0.1l-0.2-0.1h-0.2
					h-0.1l0,0l0,0c-0.2,0-0.5,0-0.7,0.2l0,0l0,0v0.1v0.2v0.1l0,0l0,0v0.1l0.1,0.2c0,0.1,0.1,0.4,0.1,0.4c0,0.2-0.1,0.4,0.2,0.5
					c0,0.1,0.2,0.4,0.3,0.4l0.1,0.1v0.1v0.2l0.1,0.1l0.1,0.2c0.1,0.1,0.7,0.6,0.8,0.7c0.1,0.1,0.1,0.2,0.1,0.3
					c0,0.1-0.1,0.2-0.1,0.2h-0.4l0,0c-0.2-0.1-0.4-0.3-0.7-0.4h-0.1H302l-0.1-0.1h-0.2h-0.1C301.5,451.6,301.2,451.6,301.1,451.6z"
					/>
			</g>
			<g>
				<path class="st1" d="M290.8,463.3c-0.1,0-0.5,0-0.5,0c-0.1,0-0.7,0.1-0.8,0.2c-0.1,0.2-0.3,0.2-0.5,0.2l-0.2,0.1h-0.1
					c-0.1,0-0.3,0-0.3-0.2c0,0,0-0.1,0.1-0.1c0-0.1,0.2-0.3,0.2-0.3c0.1-0.1,0.6-0.6,0.7-0.7c0-0.1,0.1-0.2,0.2-0.2
					c0.1-0.1,0.3-0.6,0.4-0.7l0.1-0.3c0,0,0.1-0.2,0.1-0.3l0.1-0.1v-0.1c0-0.1,0-0.2,0-0.3c0,0,0.1-0.2,0.1-0.3c0,0-0.1-0.2-0.1-0.3
					c-0.1-0.1-0.3-0.1-0.4-0.1h-0.1c-0.5,0-1,0.3-1.5,0.4c-0.1,0.1-0.7,0.3-0.8,0.4c-0.3,0.1-0.4,0.3-0.6,0.5
					c-0.1,0.2-0.2,0.4-0.4,0.4c-0.2,0-0.2-0.1-0.2-0.3c0-0.3,0.3-0.6,0.4-0.9v-0.1c0-0.1,0.1-0.6,0.1-0.7v-0.1c0-0.1,0-0.3,0-0.3
					s-0.1-0.5-0.1-0.6c-0.1-0.4-0.2-0.9-0.5-1.3c0-0.1,0-0.1,0.1-0.1s0.1,0.1,0.3,0.1c0.1,0,0.3,0.2,0.3,0.2s0.2,0.2,0.3,0.3
					l0.1,0.2c0,0,0.2,0.1,0.3,0.2c0.2,0.1,0.4,0.3,0.6,0.4l0.2,0.2h0.2c0.2,0,0.3,0.1,0.5,0.2h0.3h0.1l0,0l0,0h0.1h0.1l0,0
					c0.1,0,0.3-0.1,0.3-0.2V458c-0.1-0.2,0-0.3-0.1-0.5l-0.1-0.2c0,0,0-0.2-0.1-0.2c0-0.1,0-0.2,0-0.2l-0.1-0.1
					c-0.1-0.1-0.1-0.2-0.1-0.4c-0.1-0.2-0.2-0.3-0.3-0.5v-0.2c0,0-0.2-0.2-0.2-0.3c-0.1-0.1-0.5-0.5-0.6-0.6v-0.1
					c0-0.2,0.1-0.3,0.3-0.3c0.4,0,0.6,0.3,1,0.4s0.9,0.2,1.3,0.2c0.2,0,0.5,0,0.7-0.1c0.4-0.2,0.7-0.4,1.1-0.4c0.1,0,0.3,0,0.3,0.2
					l0,0c0,0-0.1,0.2-0.1,0.3c-0.1,0.2-0.3,0.2-0.5,0.3c-0.4,0.2-0.6,0.5-0.9,0.8l-0.1,0.1c-0.2,0.4-0.3,0.7-0.4,1.1
					c0,0,0,0.1,0,0.2s0,0.2,0,0.2v0.1c0,0.1,0,0.3,0,0.3v0.3c0,0,0,0,0,0.1c0,0.2,0.1,0.5,0.4,0.5c0,0,0.1,0,0.1-0.1
					c0.1,0,0.4-0.1,0.4-0.1h0.1c0.1,0,0.3-0.1,0.3-0.1l0,0c0.1,0,0.1,0,0.1,0h0.1c0.1-0.1,0.2-0.1,0.3-0.1l0.1-0.1
					c0.1,0,0.3-0.2,0.3-0.2h0.3l0.2-0.2l0.2-0.1c0.1-0.1,0.5-0.3,0.5-0.4l0.1-0.1c0.1-0.1,0.2-0.1,0.3-0.2c0.1-0.1,0.1-0.1,0.3-0.1
					c0.1,0,0.1,0.1,0.1,0.2c0,0,0,0,0,0.1s0,0.2,0,0.3c-0.1,0.1-0.4,0.7-0.4,0.8c-0.1,0.4-0.1,0.8-0.1,1.1v0.2v0.1
					c0,0.1,0.1,0.4,0.1,0.5c0,0.2,0.1,0.2,0.1,0.4c0,0.1,0,0.1,0.1,0.2c0,0,0.2,0.2,0.2,0.5c0,0.1,0,0.2-0.1,0.2
					c-0.2,0-0.3-0.3-0.4-0.4l-0.3-0.2l-0.3-0.3c0,0-0.5-0.2-0.7-0.3l-0.2-0.1l-0.2-0.1H293c-0.1,0-0.5-0.1-0.6-0.1l-0.2-0.1H292
					h-0.1l0,0l0,0c-0.2,0-0.5,0-0.7,0.2l0,0l0,0v0.1v0.2v0.1l0,0l0,0v0.1l0.1,0.2c0,0.1,0.1,0.4,0.1,0.4c0,0.2-0.1,0.4,0.2,0.5
					c0,0.1,0.2,0.4,0.3,0.4l0.1,0.1v0.1v0.2l0.1,0.1l0.1,0.2c0.1,0.1,0.7,0.6,0.8,0.7c0.1,0.1,0.1,0.2,0.1,0.3
					c0,0.1-0.1,0.2-0.1,0.2h-0.4l0,0c-0.2-0.1-0.4-0.3-0.7-0.4h-0.1h-0.1l-0.1-0.1h-0.2h-0.1C291.2,463.3,290.8,463.3,290.8,463.3z"
					/>
			</g>
			<g>
				<path class="st1" d="M311.6,463.3c-0.1,0-0.5,0-0.5,0c-0.1,0-0.7,0.1-0.8,0.2c-0.1,0.2-0.3,0.2-0.5,0.2l-0.2,0.1h-0.1
					c-0.1,0-0.3,0-0.3-0.2c0,0,0-0.1,0.1-0.1c0-0.1,0.2-0.3,0.2-0.3c0.1-0.1,0.6-0.6,0.7-0.7c0-0.1,0.1-0.2,0.2-0.2
					c0.1-0.1,0.3-0.6,0.4-0.7l0.1-0.3c0,0,0.1-0.2,0.1-0.3l0.1-0.1v-0.1c0-0.1,0-0.2,0-0.3c0,0,0.1-0.2,0.1-0.3c0,0-0.1-0.2-0.1-0.3
					c-0.1-0.1-0.3-0.1-0.4-0.1h-0.1c-0.5,0-1,0.3-1.5,0.4c-0.1,0.1-0.7,0.3-0.8,0.4c-0.3,0.1-0.4,0.3-0.6,0.5
					c-0.1,0.2-0.2,0.4-0.4,0.4c-0.2,0-0.2-0.1-0.2-0.3c0-0.3,0.3-0.6,0.4-0.9v-0.1c0-0.1,0.1-0.6,0.1-0.7v-0.1c0-0.1,0-0.3,0-0.3
					s-0.1-0.5-0.1-0.6c-0.1-0.4-0.2-0.9-0.5-1.3c0-0.1,0-0.1,0.1-0.1s0.1,0.1,0.3,0.1c0.1,0,0.3,0.2,0.3,0.2s0.2,0.2,0.3,0.3
					l0.1,0.2c0,0,0.2,0.1,0.3,0.2c0.2,0.1,0.4,0.3,0.6,0.4l0.2,0.2h0.2c0.2,0,0.3,0.1,0.5,0.2h0.3h0.1l0,0l0,0h0.1h0.1l0,0
					c0.1,0,0.3-0.1,0.3-0.2V458c-0.1-0.2,0-0.3-0.1-0.5l-0.1-0.2c0,0,0-0.2-0.1-0.2c0-0.1,0-0.2,0-0.2l-0.1-0.1
					c-0.1-0.1-0.1-0.2-0.1-0.4c-0.1-0.2-0.2-0.3-0.3-0.5v-0.2c0,0-0.2-0.2-0.2-0.3c-0.1-0.1-0.5-0.5-0.6-0.6v-0.1
					c0-0.2,0.1-0.3,0.3-0.3c0.4,0,0.6,0.3,1,0.4s0.9,0.2,1.3,0.2c0.2,0,0.5,0,0.7-0.1c0.4-0.2,0.7-0.4,1.1-0.4c0.1,0,0.3,0,0.3,0.2
					l0,0c0,0-0.1,0.2-0.1,0.3c-0.1,0.2-0.3,0.2-0.5,0.3c-0.4,0.2-0.6,0.5-0.9,0.8l-0.1,0.1c-0.2,0.4-0.3,0.7-0.4,1.1
					c0,0,0,0.1,0,0.2s0,0.2,0,0.2v0.1c0,0.1,0,0.3,0,0.3v0.3c0,0,0,0,0,0.1c0,0.2,0.1,0.5,0.4,0.5c0,0,0.1,0,0.1-0.1
					c0.1,0,0.4-0.1,0.4-0.1h0.1c0.1,0,0.3-0.1,0.3-0.1l0,0c0.1,0,0.1,0,0.1,0h0.1c0.1-0.1,0.2-0.1,0.3-0.1l0.1-0.1
					c0.1,0,0.3-0.2,0.3-0.2h0.3l0.2-0.2l0.2-0.1c0.1-0.1,0.5-0.3,0.5-0.4l0.1-0.1c0.1-0.1,0.2-0.1,0.3-0.2c0.1-0.1,0.1-0.1,0.3-0.1
					c0.1,0,0.1,0.1,0.1,0.2c0,0,0,0,0,0.1s0,0.2,0,0.3c-0.1,0.1-0.4,0.7-0.4,0.8c-0.1,0.4-0.1,0.8-0.1,1.1v0.2v0.1
					c0,0.1,0.1,0.4,0.1,0.5c0,0.2,0.1,0.2,0.1,0.4c0,0.1,0,0.1,0.1,0.2c0,0,0.2,0.2,0.2,0.5c0,0.1,0,0.2-0.1,0.2
					c-0.2,0-0.3-0.3-0.4-0.4l-0.3-0.2l-0.3-0.3c0,0-0.5-0.2-0.7-0.3l-0.2-0.1l-0.2-0.1h-0.1c-0.1,0-0.5-0.1-0.6-0.1l-0.2-0.1h-0.2
					h-0.1l0,0l0,0c-0.2,0-0.5,0-0.7,0.2l0,0l0,0v0.1v0.2v0.1l0,0l0,0v0.1l0.1,0.2c0,0.1,0.1,0.4,0.1,0.4c0,0.2-0.1,0.4,0.2,0.5
					c0,0.1,0.2,0.4,0.3,0.4l0.1,0.1v0.1v0.2l0.1,0.1l0.1,0.2c0.1,0.1,0.7,0.6,0.8,0.7c0.1,0.1,0.1,0.2,0.1,0.3
					c0,0.1-0.1,0.2-0.1,0.2h-0.4l0,0c-0.2-0.1-0.4-0.3-0.7-0.4h-0.1h-0.1l-0.1-0.1h-0.2h-0.1C312,463.3,311.6,463.3,311.6,463.3z"/>
			</g>
			<g>
				<path class="st1" d="M301.1,475c-0.1,0-0.5,0-0.5,0c-0.1,0-0.7,0.1-0.8,0.2c-0.1,0.2-0.3,0.2-0.5,0.2l-0.2,0.1H299
					c-0.1,0-0.3,0-0.3-0.2c0,0,0-0.1,0.1-0.1c0-0.1,0.2-0.3,0.2-0.3c0.1-0.1,0.6-0.6,0.7-0.7c0-0.1,0.1-0.2,0.2-0.2
					c0.1-0.1,0.3-0.6,0.4-0.7l0.1-0.3c0,0,0.1-0.2,0.1-0.3l0.1-0.1v-0.1c0-0.1,0-0.2,0-0.3c0,0,0.1-0.2,0.1-0.3c0,0-0.1-0.2-0.1-0.3
					c-0.1-0.1-0.3-0.1-0.4-0.1h-0.1c-0.5,0-1,0.3-1.5,0.4c-0.1,0.1-0.7,0.3-0.8,0.4c-0.3,0.1-0.4,0.3-0.6,0.5
					c-0.1,0.2-0.2,0.4-0.4,0.4c-0.2,0-0.2-0.1-0.2-0.3c0-0.3,0.3-0.6,0.4-0.9v-0.1c0-0.1,0.1-0.6,0.1-0.7v-0.1c0-0.1,0-0.3,0-0.3
					s-0.1-0.5-0.1-0.6c-0.1-0.4-0.2-0.9-0.5-1.3c0-0.1,0-0.1,0.1-0.1s0.1,0.1,0.3,0.1c0.1,0,0.3,0.2,0.3,0.2s0.2,0.2,0.3,0.3
					l0.1,0.2c0,0,0.2,0.1,0.3,0.2c0.2,0.1,0.4,0.3,0.6,0.4l0.2,0.2h0.2c0.2,0,0.3,0.1,0.5,0.2h0.3h0.1l0,0l0,0h0.1h0.1l0,0
					c0.1,0,0.3-0.1,0.3-0.2v-0.7c-0.1-0.2,0-0.3-0.1-0.5l-0.1-0.2c0,0,0-0.2-0.1-0.2c0-0.1,0-0.2,0-0.2l-0.1-0.1
					c-0.1-0.1-0.1-0.2-0.1-0.4c-0.1-0.2-0.2-0.3-0.3-0.5v-0.2c0,0-0.2-0.2-0.2-0.3c-0.1-0.1-0.5-0.5-0.6-0.6v-0.1
					c0-0.2,0.1-0.3,0.3-0.3c0.4,0,0.6,0.3,1,0.4s0.9,0.2,1.3,0.2c0.2,0,0.5,0,0.7-0.1c0.4-0.2,0.7-0.4,1.1-0.4c0.1,0,0.3,0,0.3,0.2
					l0,0c0,0-0.1,0.2-0.1,0.3c-0.1,0.2-0.3,0.2-0.5,0.3c-0.4,0.2-0.6,0.5-0.9,0.8l-0.1,0.1c-0.2,0.4-0.3,0.7-0.4,1.1
					c0,0,0,0.1,0,0.2s0,0.2,0,0.2v0.1c0,0.1,0,0.3,0,0.3v0.3c0,0,0,0,0,0.1c0,0.2,0.1,0.5,0.4,0.5c0,0,0.1,0,0.1-0.1
					c0.1,0,0.4-0.1,0.4-0.1h0.1c0.1,0,0.3-0.1,0.3-0.1l0,0c0.1,0,0.1,0,0.1,0h0.1c0.1-0.1,0.2-0.1,0.3-0.1l0.1-0.1
					c0.1,0,0.3-0.2,0.3-0.2h0.3l0.2-0.2l0.2-0.1c0.1-0.1,0.5-0.3,0.5-0.4l0.1-0.1c0.1-0.1,0.2-0.1,0.3-0.2c0.1-0.1,0.1-0.1,0.3-0.1
					c0.1,0,0.1,0.1,0.1,0.2c0,0,0,0,0,0.1s0,0.2,0,0.3c-0.1,0.1-0.4,0.7-0.4,0.8c-0.1,0.4-0.1,0.8-0.1,1.1v0.2v0.1
					c0,0.1,0.1,0.4,0.1,0.5c0,0.2,0.1,0.2,0.1,0.4c0,0.1,0,0.1,0.1,0.2c0,0,0.2,0.2,0.2,0.5c0,0.1,0,0.2-0.1,0.2
					c-0.2,0-0.3-0.3-0.4-0.4l-0.3-0.2l-0.3-0.3c0,0-0.5-0.2-0.7-0.3l-0.2-0.1l-0.2-0.1h-0.1c-0.1,0-0.5-0.1-0.6-0.1l-0.2-0.1h-0.2
					h-0.1l0,0l0,0c-0.2,0-0.5,0-0.7,0.2l0,0l0,0v0.1v0.2v0.1l0,0l0,0v0.1l0.1,0.2c0,0.1,0.1,0.4,0.1,0.4c0,0.2-0.1,0.4,0.2,0.5
					c0,0.1,0.2,0.4,0.3,0.4l0.1,0.1v0.1v0.2l0.1,0.1l0.1,0.2c0.1,0.1,0.7,0.6,0.8,0.7c0.1,0.1,0.1,0.2,0.1,0.3
					c0,0.1-0.1,0.2-0.1,0.2h-0.4l0,0c-0.2-0.1-0.4-0.3-0.7-0.4h-0.1H302l-0.1-0.1h-0.2h-0.1C301.5,475,301.2,475,301.1,475z"/>
			</g>
		</g>
	</g>
	<circle class="st0" cx="301.1" cy="301.1" r="190.4"/>
</g>
<g>
	<path d="M443.2,311.5c0.1,0,0.2,0.1,0.1,0.2c0,0.1-0.1,0.2-0.3,0.2c-0.1,0-0.3,0-0.4,0c-0.3,0-0.5,0.1-0.8,0.2
		c-0.3,0.1-0.5,0.4-0.6,0.8c-0.1,0.2-0.1,0.4-0.1,0.6c0,0.4,0,0.6,0,0.7l7.2,0.7c0.3,0,0.5,0,0.6-0.2c0-0.1,0.1-0.3,0.1-0.7
		c0-0.1,0.1-0.1,0.1-0.1c0.1,0,0.1,0.1,0.1,0.2c0,0.1,0,0.1,0,0.2c-0.1,0.5-0.1,0.8-0.1,1c0,0.3,0,0.5-0.1,0.7c0,0.2,0,0.5-0.1,0.9
		c0,0.2-0.1,0.3-0.1,0.3c-0.1,0-0.1-0.2-0.1-0.5c0-0.2,0-0.4-0.1-0.5c-0.1,0-0.2-0.1-0.5-0.1l-7.2-0.7c-0.1,0.8-0.1,1.3,0,1.5
		c0.1,0.5,0.6,0.9,1.4,1c0.2,0,0.4,0.1,0.3,0.2c0,0.1-0.1,0.1-0.3,0.1c-0.1,0-0.2,0-0.3,0l-0.3-0.1c-0.4-0.1-0.8-0.1-1.4-0.3
		l0.1-0.5l0.3-2.4c0-0.3,0.1-0.7,0.1-1.3l0.2-2c0.4,0,1.1,0,2,0C443.1,311.6,443.1,311.6,443.2,311.5
		C443.2,311.5,443.2,311.5,443.2,311.5z"/>
	<path d="M445.2,307.3c0.2,0,0.3,0.1,0.4,0.2c0.1,0.1,0.2,0.3,0.1,0.4c0,0.1-0.1,0.3-0.2,0.4c-0.1,0.1-0.2,0.1-0.3,0.1
		c-0.1,0-0.2-0.1-0.3-0.1c-0.1-0.1-0.1-0.1-0.2-0.1c-0.1,0-0.2,0.1-0.2,0.3c0,0.2,0.1,0.4,0.4,0.6c0.3,0.2,0.9,0.3,1.8,0.4l2.4,0.2
		c0.1,0,0.2,0,0.2-0.1c0-0.1,0.1-0.3,0.1-0.6c0-0.1,0.1-0.1,0.1-0.1c0.1,0,0.1,0.1,0.1,0.2c0,0.2,0,0.4,0,0.5c0,0.2,0,0.5-0.1,0.9
		c0,0.2,0,0.4,0,0.5c0,0.1,0,0.2,0,0.4c0,0.1,0,0.2-0.1,0.2c0,0-0.1-0.1-0.1-0.2l0-0.2c0-0.3,0-0.4-0.1-0.5c0,0-0.2,0-0.4-0.1
		l-3.3-0.2c-0.4,0-0.7,0-0.8,0.1s-0.1,0.3-0.2,0.6c0,0.1,0,0.1-0.1,0.1s-0.1,0-0.1-0.1l0-0.1c0-0.1,0-0.2,0-0.4c0-0.1,0-0.2,0-0.2
		c0-0.3,0-0.6-0.2-1l-0.1-0.2l0-0.1c0.2,0,0.4,0,0.6,0l0.2,0c-0.5-0.3-0.8-0.7-0.7-1.1c0-0.3,0.1-0.5,0.3-0.6
		C444.7,307.4,444.9,307.3,445.2,307.3z"/>
	<path d="M447.4,301.8c0.8,0,1.4,0.3,1.9,0.8s0.7,1.1,0.7,1.8c0,0.7-0.3,1.3-0.9,1.8c-0.5,0.5-1.2,0.7-2,0.6c-0.8,0-1.5-0.3-2-0.8
		c-0.5-0.5-0.7-1.1-0.7-1.8c0-0.7,0.3-1.3,0.9-1.8C445.9,302,446.6,301.8,447.4,301.8z M447.3,302.9c-0.9,0-1.6,0.1-2.1,0.3
		c-0.4,0.2-0.6,0.5-0.6,1c0,0.4,0.2,0.8,0.6,1.1c0.4,0.3,1.1,0.4,1.9,0.5c0.8,0,1.4-0.1,1.9-0.3s0.7-0.6,0.7-1.1
		c0-0.4-0.1-0.6-0.4-0.8C448.9,303.1,448.2,302.9,447.3,302.9z"/>
	<path d="M447.4,295.7c0.8,0,1.5,0.2,2,0.7c0.5,0.5,0.8,1,0.8,1.7c0,0.5-0.2,0.9-0.6,1.2l2.8,0c0.2,0,0.3,0,0.3,0c0,0,0.1,0,0.1-0.1
		c0-0.1,0-0.4,0-0.7c0-0.1,0-0.1,0.1-0.1c0.1,0,0.1,0.1,0.1,0.2l0,0.2c0,0.1,0,0.1,0,0.3c0,0.1,0,0.2,0,0.3c0,0,0,0.2,0,0.4
		c0,0.2,0,0.4,0,0.5l0,0.6c0,0.2,0,0.3-0.1,0.3c-0.1,0-0.1-0.1-0.1-0.1l0-0.4c0-0.2,0-0.4-0.1-0.4c0,0-0.4,0-1.1,0l-6-0.1
		c-0.2,0-0.3,0.1-0.3,0.3c0,0.3,0,0.5,0,0.5c0,0.1,0,0.1-0.1,0.1c-0.1,0-0.1-0.1-0.1-0.3c0-0.4-0.1-0.8-0.3-1.2
		c-0.1-0.1-0.1-0.2-0.1-0.2c0-0.1,0-0.1,0.1-0.1c0.1,0,0.2,0,0.5,0c-0.4-0.3-0.6-0.7-0.6-1.3c0-0.7,0.3-1.3,0.8-1.7
		C446,295.9,446.6,295.7,447.4,295.7z M447.4,296.8c-0.6,0-1.2,0.1-1.6,0.3c-0.6,0.2-0.9,0.6-0.9,1.2c0,0.3,0.1,0.5,0.3,0.7
		s0.4,0.3,0.7,0.3c0.4,0,1.1,0,2.2,0c0.6,0,0.9,0,1,0c0.1,0,0.2-0.1,0.4-0.2c0.3-0.2,0.5-0.5,0.5-0.9c0-0.4-0.2-0.7-0.5-0.9
		C448.9,297,448.2,296.8,447.4,296.8z"/>
	<path d="M442.5,293c0.4,0,0.5,0.2,0.5,0.5c0,0.2,0,0.3-0.1,0.4c-0.1,0.1-0.2,0.2-0.4,0.2c-0.4,0-0.6-0.2-0.6-0.5
		S442.1,293,442.5,293z M450,292c0.1,0,0.1,0.1,0.1,0.2c0,0,0,0.1,0,0.3c0,0.2,0,0.4,0,0.6l0,1.2c0,0,0,0.1,0,0.1
		c0,0.1,0,0.1-0.1,0.1c-0.1,0-0.1-0.1-0.1-0.2c0-0.3,0-0.5-0.1-0.5c0,0-0.2,0-0.5,0l-3.6,0c-0.2,0-0.3,0-0.4,0c0,0-0.1,0.1-0.1,0.2
		l0,0.3c0,0,0,0.1,0,0.1c0,0.1,0,0.1-0.1,0.1c0,0-0.1-0.1-0.1-0.2c0-0.5-0.2-1-0.4-1.4l-0.1-0.1c0.1-0.1,0.3-0.1,0.7-0.1
		c0,0,0,0,0.1,0c0.1,0,0.3,0,0.5,0l3.3,0c0.3,0,0.5,0,0.6,0c0.1,0,0.1-0.1,0.1-0.1c0-0.1,0-0.3,0-0.5C449.9,292.1,449.9,292,450,292
		z"/>
	<path d="M445.8,286.9c0.4,0,0.6,0.2,0.6,0.5c0,0.4-0.2,0.5-0.5,0.5c-0.1,0-0.2,0-0.4-0.1c-0.1,0-0.1,0-0.2,0
		c-0.2,0-0.3,0.1-0.4,0.3c-0.1,0.2-0.1,0.4-0.1,0.6c0,0.5,0.2,0.8,0.7,1.1c0.4,0.3,1,0.4,1.8,0.3c0.8,0,1.5-0.2,2-0.5
		c0.5-0.3,0.7-0.7,0.7-1.2c0-0.3-0.1-0.6-0.3-0.9c-0.1-0.1-0.3-0.3-0.6-0.5c0,0-0.1-0.1-0.1-0.1c0-0.1,0-0.1,0.1-0.1
		c0.1,0,0.3,0.1,0.6,0.4c0.4,0.3,0.6,0.8,0.6,1.4c0,0.7-0.2,1.3-0.7,1.8c-0.5,0.5-1.1,0.7-1.9,0.7c-0.8,0-1.5-0.2-2.1-0.7
		c-0.6-0.5-0.8-1.1-0.9-1.8c0-0.5,0.1-0.9,0.3-1.3C445.2,287.1,445.4,286.9,445.8,286.9z"/>
	<path d="M446.8,278.6c0.8-0.1,1.4,0.1,2,0.6c0.6,0.4,0.9,1,0.9,1.7c0,0.7-0.2,1.4-0.7,1.9c-0.5,0.5-1.1,0.8-1.9,0.9
		c-0.8,0.1-1.5-0.1-2-0.6c-0.6-0.4-0.9-1-0.9-1.7c0-0.7,0.2-1.3,0.7-1.9C445.4,278.9,446,278.6,446.8,278.6z M446.9,279.7
		c-0.9,0.1-1.6,0.2-2,0.5c-0.3,0.2-0.5,0.6-0.5,1c0,0.4,0.3,0.8,0.8,1c0.5,0.2,1.1,0.3,1.9,0.2c0.8-0.1,1.4-0.2,1.9-0.5
		c0.4-0.3,0.6-0.7,0.6-1.2c0-0.4-0.2-0.6-0.5-0.8C448.5,279.7,447.8,279.6,446.9,279.7z"/>
	<path d="M441.4,274.1c0.2,0,0.3,0,0.4,0.1s0.2,0.2,0.2,0.4c0,0.2,0,0.3-0.1,0.4c-0.1,0.1-0.2,0.2-0.3,0.2c-0.1,0-0.3,0-0.4-0.1
		c0,0-0.1,0-0.1,0c-0.2,0-0.3,0.2-0.2,0.4c0,0.4,0.4,0.7,0.9,0.8c0.3,0,0.8,0,1.6,0l0.6-0.1l-0.1-0.8c0-0.2,0-0.2,0.1-0.2
		c0.1,0,0.1,0.1,0.1,0.3l0.1,0.7l4.7-0.4c0.1,0,0.2-0.1,0.1-0.3c0-0.3,0-0.5,0-0.6c0,0,0,0,0,0c0.1,0,0.1,0,0.1,0.1c0,0,0,0.1,0,0.1
		l0.1,1l0.1,1.3c0,0.1,0,0.2-0.1,0.2c-0.1,0-0.1,0-0.1-0.2c0-0.4-0.1-0.6-0.1-0.7c0,0,0,0-0.1,0l-0.2,0l-4.5,0.4c0,0.3,0,0.5,0,0.5
		c0,0,0,0.1-0.1,0.1c-0.1,0-0.1-0.1-0.1-0.2l0-0.4c-1,0.1-1.8,0-2.2-0.2c-0.7-0.3-1.1-0.8-1.2-1.6c0-0.4,0-0.6,0.2-0.9
		C441,274.2,441.2,274.1,441.4,274.1z"/>
	<path d="M445.2,264.7c0,0,0.1,0,0.3,0c0.5,0,0.9-0.1,1.3-0.1c0,0,0.1,0,0.3-0.1s0.3-0.1,0.5-0.1l0.1,0c0.1,0,0.2,0,0.2,0.1
		c0,0.1,0,0.1-0.2,0.2c-0.2,0.1-0.4,0.3-0.5,0.4c0.6,0.5,0.9,1.2,1,2c0.2,1.2-0.1,2.2-0.8,3.1s-1.7,1.4-2.9,1.6
		c-1.2,0.2-2.3,0-3.2-0.6s-1.4-1.5-1.5-2.6c-0.1-0.4-0.1-0.7,0-1c0-0.3,0.1-0.6,0.3-1c0.1-0.2,0.1-0.3,0.1-0.4
		c0-0.1-0.1-0.1-0.2-0.2c-0.2-0.1-0.4-0.1-0.4-0.2c0-0.1,0-0.1,0.1-0.1c0,0,0.1,0,0.2,0c0.4,0,1.1,0,2.2-0.2c0.2,0,0.2,0,0.3,0
		c0,0,0,0.1,0,0.1c0,0.1-0.1,0.1-0.2,0.2c-0.6,0.2-1.1,0.4-1.4,0.6c-0.6,0.5-0.8,1.1-0.7,2c0.1,0.6,0.4,1.1,0.8,1.4
		c0.9,0.6,2,0.8,3.5,0.6c1.3-0.2,2.3-0.6,3-1.2c0.6-0.6,0.8-1.3,0.7-2.1c-0.1-0.4-0.2-0.8-0.5-1.1c-0.2-0.3-0.6-0.5-0.9-0.7
		c-0.4-0.2-0.9-0.2-1.4-0.3c-0.2,0-0.3,0-0.3-0.1C445,264.8,445,264.7,445.2,264.7z"/>
	<path d="M446.3,258.4c0.1,0,0.3,0.1,0.5,0.3c0.2,0.3,0.3,0.5,0.4,0.8c0.1,0.5-0.1,0.9-0.7,1c0.6,0.2,1,0.6,1.1,1.2
		c0.1,0.3,0,0.6-0.2,0.9c-0.2,0.3-0.4,0.4-0.7,0.5c-0.6,0.1-1.2-0.2-1.7-0.9c-0.2-0.2-0.4-0.7-0.6-1.3l-0.3,0
		c-0.7,0.1-1.1,0.2-1.4,0.3c-0.4,0.2-0.5,0.5-0.5,1c0,0.3,0.2,0.5,0.3,0.7c0.2,0.2,0.4,0.2,0.6,0.2c0.1,0,0.1-0.1,0.1-0.2
		c0-0.1,0-0.2,0.1-0.3c0.1-0.1,0.2-0.1,0.3-0.2c0.3-0.1,0.5,0.1,0.6,0.4c0,0.2,0,0.3-0.1,0.5s-0.2,0.2-0.4,0.3c-0.4,0.1-0.7,0-1-0.3
		c-0.3-0.3-0.6-0.7-0.7-1.3c-0.1-0.9,0-1.4,0.4-1.7c0.2-0.1,0.5-0.2,1.1-0.3l2.2-0.4c0.4-0.1,0.6-0.1,0.6-0.1
		c0.3-0.1,0.4-0.2,0.4-0.4c0-0.2-0.1-0.4-0.3-0.5C446.3,258.6,446.2,258.5,446.3,258.4C446.2,258.5,446.2,258.4,446.3,258.4z
		 M445.4,260.7l-0.9,0.1c0.2,0.6,0.5,0.9,0.7,1.2c0.3,0.2,0.6,0.3,0.9,0.2c0.3,0,0.4-0.1,0.6-0.3s0.2-0.4,0.2-0.6
		c-0.1-0.3-0.3-0.6-0.7-0.7C446.1,260.6,445.8,260.7,445.4,260.7z"/>
	<path d="M443.1,253.4c0.8-0.2,1.5-0.1,2.1,0.3c0.6,0.3,1,0.8,1.1,1.5c0.1,0.5,0,1-0.3,1.3l2.7-0.5c0.2,0,0.3-0.1,0.3-0.1
		s0-0.1,0.1-0.1c0-0.1,0-0.4-0.1-0.7c0-0.1,0-0.1,0.1-0.2c0.1,0,0.1,0,0.1,0.1l0,0.2c0,0.1,0,0.1,0.1,0.3c0,0.1,0,0.2,0.1,0.3
		c0,0,0,0.2,0.1,0.4c0,0.2,0.1,0.4,0.1,0.5l0.1,0.6c0,0.2,0,0.3,0,0.4c-0.1,0-0.1,0-0.1-0.1l-0.1-0.4c0-0.2-0.1-0.3-0.2-0.3
		c0,0-0.4,0.1-1.1,0.2l-5.9,1.2c-0.2,0-0.3,0.2-0.2,0.4c0.1,0.3,0.1,0.5,0.1,0.5c0,0.1,0,0.1-0.1,0.1c-0.1,0-0.1-0.1-0.2-0.2
		c-0.1-0.4-0.3-0.8-0.5-1.1c-0.1-0.1-0.1-0.2-0.1-0.2c0-0.1,0-0.1,0.1-0.1s0.2-0.1,0.5-0.1c-0.5-0.2-0.8-0.6-0.9-1.1
		c-0.1-0.7,0-1.3,0.4-1.8C441.7,253.9,442.3,253.5,443.1,253.4z M443.3,254.4c-0.6,0.1-1.1,0.3-1.5,0.6c-0.5,0.4-0.8,0.8-0.7,1.3
		c0.1,0.3,0.2,0.5,0.4,0.7s0.5,0.2,0.8,0.2c0.3-0.1,1.1-0.2,2.2-0.4c0.6-0.1,0.9-0.2,1-0.2c0.1,0,0.2-0.1,0.3-0.2
		c0.3-0.3,0.4-0.6,0.3-1c-0.1-0.4-0.3-0.7-0.7-0.8C444.9,254.3,444.2,254.2,443.3,254.4z"/>
	<path d="M440.2,249c0.2,0,0.3,0,0.5,0.1c0.1,0.1,0.2,0.2,0.3,0.4c0,0.1,0,0.3,0,0.4c-0.1,0.1-0.2,0.2-0.3,0.2c-0.1,0-0.2,0-0.3,0
		c-0.1-0.1-0.2-0.1-0.2-0.1c-0.1,0-0.2,0.1-0.1,0.3c0,0.2,0.2,0.4,0.5,0.5c0.4,0.1,1,0.1,1.8-0.1l2.3-0.5c0.1,0,0.1-0.1,0.2-0.1
		c0-0.1,0-0.3-0.1-0.6c0-0.1,0-0.1,0.1-0.1c0.1,0,0.1,0,0.1,0.1c0,0.2,0.1,0.3,0.1,0.5s0.1,0.5,0.2,0.9c0.1,0.2,0.1,0.4,0.1,0.5
		c0,0.1,0.1,0.2,0.1,0.4c0,0.1,0,0.2,0,0.2c0,0-0.1,0-0.1-0.1l0-0.2c-0.1-0.3-0.1-0.4-0.2-0.4c0,0-0.2,0-0.4,0.1l-3.2,0.7
		c-0.4,0.1-0.7,0.2-0.7,0.4c0,0.1,0,0.4,0,0.6c0,0.1,0,0.1,0,0.2s-0.1,0-0.1-0.1l0-0.1c0-0.1,0-0.2-0.1-0.4c0-0.1,0-0.2,0-0.2
		c-0.1-0.3-0.2-0.6-0.5-0.9l-0.1-0.1l-0.1-0.1c0.2-0.1,0.4-0.1,0.6-0.2l0.2-0.1c-0.6-0.1-0.9-0.4-1-0.9c-0.1-0.2,0-0.5,0.1-0.7
		S440,249.1,440.2,249z"/>
	<path d="M436.7,247.5c0.3-0.1,0.6,0,0.7,0.4c0,0.1,0,0.3-0.1,0.4c-0.1,0.1-0.2,0.2-0.3,0.2c-0.4,0.1-0.6,0-0.7-0.4
		C436.2,247.8,436.4,247.6,436.7,247.5z M443.8,244.8c0.1,0,0.1,0,0.2,0.2c0,0,0,0.1,0,0.3c0,0.2,0.1,0.4,0.1,0.6l0.3,1.2
		c0,0,0.1,0.1,0.1,0.1c0,0.1,0,0.1-0.1,0.1c-0.1,0-0.1,0-0.2-0.2c-0.1-0.3-0.1-0.4-0.2-0.5c0,0-0.2,0-0.5,0.1l-3.5,0.9
		c-0.2,0.1-0.3,0.1-0.3,0.1c0,0,0,0.1,0,0.2l0.1,0.3c0,0,0,0.1,0,0.1c0,0.1,0,0.1,0,0.1c0,0-0.1,0-0.1-0.2c-0.2-0.5-0.4-0.9-0.7-1.2
		l-0.1-0.1c0.1-0.1,0.3-0.2,0.6-0.3c0,0,0,0,0.1,0s0.2-0.1,0.5-0.1l3.2-0.8c0.3-0.1,0.5-0.1,0.5-0.2c0.1,0,0.1-0.1,0.1-0.1
		c0-0.1,0-0.3-0.1-0.5C443.7,244.9,443.7,244.8,443.8,244.8z"/>
	<path d="M438.5,240.7c0.4-0.1,0.6,0,0.7,0.4c0.1,0.3,0,0.6-0.3,0.6c-0.1,0-0.2,0-0.4,0c-0.1,0-0.1,0-0.2,0c-0.2,0-0.3,0.2-0.3,0.3
		s-0.1,0.4,0,0.6c0.1,0.5,0.4,0.8,0.9,0.9c0.5,0.1,1.1,0.1,1.8-0.1c0.8-0.2,1.4-0.5,1.8-0.9c0.4-0.4,0.5-0.8,0.4-1.3
		c-0.1-0.3-0.3-0.6-0.5-0.8c-0.1-0.1-0.3-0.2-0.7-0.3c0,0-0.1-0.1-0.1-0.1c0-0.1,0-0.1,0.1-0.1c0.1,0,0.3,0.1,0.7,0.3
		c0.5,0.2,0.8,0.6,0.9,1.2c0.2,0.7,0.1,1.3-0.3,1.9c-0.4,0.6-0.9,1-1.7,1.2c-0.8,0.2-1.5,0.2-2.2-0.2c-0.6-0.3-1.1-0.8-1.3-1.6
		c-0.1-0.5-0.1-0.9,0-1.3S438.1,240.8,438.5,240.7z"/>
	<path d="M438.2,234.6c0.7-0.2,1.4-0.2,2.1,0.1s1.1,0.8,1.3,1.5c0.2,0.7,0.1,1.4-0.2,2c-0.4,0.6-0.9,1-1.7,1.3
		c-0.8,0.2-1.5,0.2-2.1-0.1c-0.6-0.3-1.1-0.8-1.3-1.5c-0.2-0.7-0.1-1.3,0.2-2C436.9,235.2,437.5,234.8,438.2,234.6z M438.5,235.6
		c-0.8,0.3-1.5,0.6-1.8,1c-0.3,0.3-0.4,0.7-0.2,1.1c0.1,0.4,0.5,0.7,1,0.8c0.5,0.1,1.2,0,1.9-0.2c0.8-0.2,1.3-0.5,1.7-0.9
		c0.4-0.4,0.5-0.8,0.3-1.3c-0.1-0.4-0.3-0.6-0.6-0.7C440.1,235.3,439.4,235.4,438.5,235.6z"/>
	<path d="M434.8,230.6c0.2-0.1,0.3-0.1,0.5,0c0.1,0.1,0.3,0.2,0.3,0.4c0,0.1,0,0.3,0,0.4c0,0.1-0.1,0.2-0.3,0.2c-0.1,0-0.2,0-0.3,0
		c-0.1,0-0.2-0.1-0.2,0c-0.1,0-0.1,0.1-0.1,0.3c0.1,0.2,0.3,0.4,0.6,0.4c0.4,0.1,1,0,1.8-0.3l2.2-0.8c0.1,0,0.1-0.1,0.1-0.2
		c0-0.1,0-0.3-0.2-0.6c0-0.1,0-0.1,0-0.2c0.1,0,0.1,0,0.1,0.1c0.1,0.2,0.1,0.3,0.2,0.5c0.1,0.2,0.1,0.4,0.3,0.9
		c0.1,0.2,0.1,0.4,0.2,0.5s0.1,0.2,0.1,0.4c0,0.1,0,0.2,0,0.2c0,0-0.1,0-0.1-0.1l-0.1-0.2c-0.1-0.3-0.2-0.4-0.2-0.4
		c0,0-0.2,0-0.4,0.1l-3.1,1.1c-0.4,0.1-0.6,0.3-0.7,0.4c0,0.1,0,0.4,0.1,0.6c0,0.1,0,0.1,0,0.2c-0.1,0-0.1,0-0.1-0.1l0-0.1
		c0-0.1-0.1-0.2-0.1-0.3c0-0.1,0-0.2,0-0.2c-0.1-0.3-0.3-0.6-0.6-0.9l-0.1-0.1l-0.1-0.1c0.2-0.1,0.3-0.2,0.5-0.2l0.2-0.1
		c-0.6-0.1-1-0.3-1.1-0.8c-0.1-0.2-0.1-0.5,0-0.7C434.5,230.8,434.6,230.7,434.8,230.6z"/>
	<path d="M436.9,223.2c0.1,0,0.1,0,0.1,0.1l0,0.1c0,0.1,0.1,0.3,0.2,0.6c0.3,0.7,0.4,1.2,0.5,1.3l0,0.1c0,0.1,0,0.2,0,0.2
		c0,0-0.1,0-0.1,0c0,0-0.1-0.2-0.2-0.4c-0.1-0.1-0.1-0.2-0.2-0.2c0,0-0.2,0-0.4,0.1l-2.2,0.8c-0.8,0.3-1.3,0.5-1.4,0.6
		c-0.3,0.3-0.4,0.6-0.2,1c0.1,0.4,0.4,0.6,0.8,0.8c0.1,0,0.3,0,0.4,0l3.5-1.3c0.1,0,0.1-0.1,0.1-0.3l-0.1-0.3c0-0.1,0-0.1,0-0.1
		c0.1,0,0.1,0,0.1,0.1l0.1,0.2c0.1,0.2,0.2,0.4,0.3,0.8c0,0.1,0.1,0.3,0.2,0.5c0.1,0.3,0.2,0.4,0.2,0.5l0,0.1c0,0.1,0,0.2,0,0.2
		c0,0-0.1,0-0.2-0.2c0-0.1-0.1-0.2-0.1-0.3c0-0.1-0.1-0.2-0.2-0.2l-0.2,0l-2.4,0.9c-0.9,0.3-1.3,0.5-1.4,0.5c-0.1,0-0.1,0.2,0,0.3
		c0,0.1,0.1,0.1,0.1,0.3l0,0.1c0.1,0.2,0.1,0.2,0,0.3c-0.1,0-0.1,0-0.2-0.2c-0.1-0.2-0.2-0.5-0.4-0.7s-0.3-0.4-0.5-0.5
		c-0.1,0-0.1-0.1-0.1-0.1c0-0.1,0-0.1,0.2-0.2l0.5-0.2c-0.6-0.2-1.1-0.6-1.3-1.2c-0.2-0.5-0.1-1,0.2-1.4c0.2-0.2,0.6-0.4,1.2-0.7
		l2.6-0.9c0.2-0.1,0.4-0.1,0.4-0.2c0-0.1,0-0.2-0.1-0.4c0,0,0-0.1,0-0.1l0-0.1C436.8,223.3,436.9,223.2,436.9,223.2z"/>
</g>
</svg>
